<?xml version="1.0" encoding="UTF-8" standalone="no"?>
<!-- Created with Inkscape (http://www.inkscape.org/) -->

<svg
   xmlns:dc="http://purl.org/dc/elements/1.1/"
   xmlns:cc="http://creativecommons.org/ns#"
   xmlns:rdf="http://www.w3.org/1999/02/22-rdf-syntax-ns#"
   xmlns:svg="http://www.w3.org/2000/svg"
   xmlns="http://www.w3.org/2000/svg"
   xmlns:sodipodi="http://sodipodi.sourceforge.net/DTD/sodipodi-0.dtd"
   xmlns:inkscape="http://www.inkscape.org/namespaces/inkscape"
   width="6.833271cm"
   height="2.1433928cm"
   viewBox="0 0 242.12378 75.946987"
   id="svg4505"
   version="1.1"
   inkscape:version="0.91 r13725"
   sodipodi:docname="Blason_ville_fr_Bure_55.svg">
  <defs
     id="defs4507" />
  <sodipodi:namedview
     id="base"
     pagecolor="#ffffff"
     bordercolor="#666666"
     borderopacity="1.0"
     inkscape:pageopacity="0.0"
     inkscape:pageshadow="2"
     inkscape:zoom="4.5335937"
     inkscape:cx="110.67625"
     inkscape:cy="34.581289"
     inkscape:document-units="cm"
     inkscape:current-layer="layer1"
     showgrid="false"
     units="cm"
     inkscape:window-width="1920"
     inkscape:window-height="1019"
     inkscape:window-x="0"
     inkscape:window-y="0"
     inkscape:window-maximized="1"
     fit-margin-top="0"
     fit-margin-left="0"
     fit-margin-right="0"
     fit-margin-bottom="0" />
  <metadata
     id="metadata4510">
    <rdf:RDF>
      <cc:Work
         rdf:about="">
        <dc:format>image/svg+xml</dc:format>
        <dc:type
           rdf:resource="http://purl.org/dc/dcmitype/StillImage" />
        <dc:title></dc:title>
      </cc:Work>
    </rdf:RDF>
  </metadata>
  <g
     inkscape:label="Layer 1"
     inkscape:groupmode="layer"
     id="layer1"
     transform="translate(-1.6864501,-972.07915)">
    <path
       inkscape:connector-curvature="0"
       d=""
       id="path1887"
       style="opacity:0.63999999;fill:none;fill-opacity:1;stroke:#000000;stroke-opacity:1" />
    <path
       inkscape:connector-curvature="0"
       d=""
       id="path1883"
       style="opacity:0.63999999;fill:none;fill-opacity:1;stroke:#000000;stroke-opacity:1" />
    <path
       inkscape:connector-curvature="0"
       d=""
       id="path1881"
       style="opacity:0.63999999;fill:none;fill-opacity:1;stroke:#000000;stroke-opacity:1" />
    <path
       transform="matrix(0.57871264,0,0,0.57600705,-29.773864,907.63484)"
       style="fill:none;fill-rule:evenodd;stroke:#000000;stroke-width:1.73202074;stroke-opacity:1"
       d="m 346.433,112.861 -0.34,0.056 -0.311,0.114 -0.653,0.256 -2.463,1.446 -2.436,1.533 -2.493,1.588 -2.464,1.674 -2.492,1.731 -2.493,1.787 -2.521,1.844 -2.492,1.929 -2.55,1.958 -1.274,0.993 -1.246,1.05 -1.303,1.021 -1.275,1.078 -2.549,2.185 -2.606,2.241 -2.577,2.299 -2.606,2.354 -2.578,2.468 -1.699,0.993 -1.757,1.079 -1.925,1.078 -1.983,1.163 -2.152,1.163 -2.21,1.22 -2.322,1.22 -2.436,1.305 -2.606,1.277 -2.663,1.362 -2.804,1.362 -2.889,1.446 -3.058,1.448 -3.117,1.503 -3.228,1.504 -3.343,1.588 -1.954,0.852 -1.898,0.879 -1.869,0.851 -1.784,0.88 -1.785,0.822 -1.671,0.823 -1.671,0.795 -1.586,0.822 -1.587,0.738 -1.501,0.766 -1.473,0.738 -1.387,0.766 -1.388,0.709 -1.303,0.738 -1.275,0.681 -1.189,0.709 -1.219,0.624 -1.104,0.652 -1.104,0.624 -0.992,0.654 -0.991,0.567 -0.935,0.596 -0.878,0.567 -0.822,0.596 -0.821,0.511 -0.736,0.539 -0.708,0.511 -0.623,0.539 -0.624,0.482 -0.538,0.51 -0.51,0.454 -0.425,0.482 -1.246,1.306 -1.076,1.305 -0.51,0.624 -0.425,0.652 -0.765,1.306 -0.651,1.248 -0.453,1.304 -0.312,1.249 -0.142,1.305 -0.028,1.248 0.142,1.249 0.283,1.248 0.453,1.248 0.567,1.193 0.765,1.248 0.877,1.191 1.077,1.248 0.935,0.596 1.019,0.539 1.048,0.454 1.105,0.398 1.105,0.284 1.189,0.255 1.218,0.141 1.275,0.085 0.906,-0.028 0.963,-0.085 0.963,-0.113 0.991,-0.142 0.992,-0.199 1.048,-0.227 1.048,-0.284 1.104,-0.312 1.077,-0.369 1.133,-0.425 1.133,-0.454 1.161,-0.482 1.161,-0.539 1.218,-0.567 1.218,-0.625 1.246,-0.653 1.048,-0.68 1.162,-0.681 15.436,-10.498 2.549,-1.759 2.295,-1.56 2.351,-1.503 3.851,-2.611 1.899,-1.305 1.926,-1.277 3.766,-2.61 3.739,-2.611 3.683,-2.666 3.653,-2.61 3.626,-2.667 0.878,-0.681 0.907,-0.652 1.812,-1.306 7.024,-5.39 3.456,-2.724 1.7,-1.362 0.849,-0.68 0.425,-0.341 0.453,-0.312 0.397,-0.369 0.425,-0.34 0.849,-0.681 1.699,-1.362 3.343,-2.724 3.285,-2.78 3.258,-2.724 1.19,-1.049 0,0 1.047,-0.908 0.17,0 2.323,-1.873 2.21,-1.787 1.047,-0.908 1.02,-0.879 1.926,-1.675 1.757,-1.674 1.642,-1.617 0.765,-0.794 0.736,-0.795 1.36,-1.503 -0.624,-1.39 -0.453,-1.277 -0.198,-0.624 -0.142,-0.567 -0.141,-0.568 -0.085,-0.511 -0.17,-1.049 0,-0.937 0.085,-0.851 0.085,-0.397 0.142,-0.34 0.283,-0.71 0.453,-0.595 0.51,-0.539 0.679,-0.426 0.737,-0.369 0.878,-0.284 0.963,-0.198 1.133,-0.085 -0.481,-0.766 -0.453,-0.682 -0.255,-0.34 -0.227,-0.284 -0.482,-0.539 -0.283,-0.283 -0.255,-0.227 -0.51,-0.426 -0.538,-0.369 -0.51,-0.255 -0.595,-0.255 -0.566,-0.142 -0.595,-0.085 -0.594,-0.028 -0.652,0.028 z"
       id="polygon25061"
       inkscape:connector-curvature="0" />
    <path
       transform="matrix(0.57871264,0,0,0.57600705,-29.773864,907.63484)"
       style="fill:none;fill-rule:evenodd;stroke:#000000;stroke-width:1.73202074;stroke-opacity:1"
       d="m 292.673,191.478 0.312,0 0.34,0.028 0.623,0.057 5.042,0.113 5.098,0.142 0.85,0 0.906,0.029 0.283,0 0.255,0 0.227,0 0.198,0.028 0.283,0.028 0.17,0.057 0.482,-0.028 0.453,0 0.425,0 0.396,0 0.341,0 0.311,0 0.284,0 0.255,0.028 3.426,0.028 3.513,0.057 1.331,0 0.68,0 0.566,0 0.453,0 0.368,0.057 0.737,0 0.623,0 0.538,0 0.453,0 2.068,0.028 2.068,0.085 1.982,0.142 1.955,0.255 0,0.142 0.283,-0.312 0.17,-0.113 0.227,-0.057 0.51,-0.085 0.623,0.028 0.566,0 0.227,0 0.198,0.057 0.142,0 0.113,0.029 0.085,0 0.056,0.056 1.247,-0.114 1.189,-0.056 1.104,-0.057 1.078,-0.028 0.934,-0.057 0.906,0 0.822,0 0.764,0 2.917,-0.028 2.494,-0.057 2.548,0 0.51,-0.028 0.482,0 0.368,0 0.368,0.028 0.255,0 0.226,0.028 0.143,0.057 0.084,0.057 0.992,-0.114 0.991,-0.056 0.878,-0.057 0.85,-0.028 0.736,-0.057 0.708,-0.028 0.595,0 0.595,0 0.708,-0.029 0.624,0.029 0.509,0.056 0.397,0.142 1.841,-0.198 1.756,-0.143 1.642,-0.113 1.53,-0.057 4.249,-0.141 5.126,-0.426 5.241,-0.483 5.296,-0.539 5.41,-0.595 -2.124,-3.433 -2.096,-3.376 -2.097,-3.32 -2.067,-3.262 -2.067,-3.207 -2.04,-3.149 -2.011,-3.092 -1.983,-3.036 -2.039,-3.092 -2.011,-2.979 -1.983,-2.923 -1.982,-2.865 -1.984,-2.837 -1.954,-2.752 -1.926,-2.695 -1.925,-2.639 -12.916,1.021 -12.945,1.022 0,0 -2.407,1.957 -3.258,2.724 -3.285,2.78 -3.343,2.724 -1.699,1.362 -0.849,0.681 -0.425,0.34 -0.397,0.369 -0.453,0.312 -0.425,0.341 -0.849,0.68 -1.7,1.362 -3.456,2.724 -7.024,5.39 -1.812,1.306 -0.907,0.652 -0.878,0.681 -3.626,2.667 -3.653,2.61 -3.683,2.666 -3.739,2.611 -3.766,2.61 -1.926,1.277 -1.899,1.305 -3.851,2.611 -2.351,1.503 -2.295,1.56 6.883,0.398 1.359,0.056 1.333,0.057 1.217,0.056 0.283,0 0.142,0 0.17,0.029 0.595,0.056 0.538,0 0.255,0 0.283,0.029 1.019,0.057 0.935,0.057 0.878,0.057 1.105,0 1.077,0.056 0.962,0 0.907,0.057 0.793,0 z"
       id="polygon25063"
       inkscape:connector-curvature="0" />
    <path
       transform="matrix(0.57871264,0,0,0.57600705,-29.773864,907.63484)"
       style="fill:none;fill-rule:evenodd;stroke:#000000;stroke-width:1.73202074;stroke-opacity:1"
       d="m 399.257,180.3 1.586,1.617 0.85,0.822 0.906,0.88 1.87,1.731 2.011,1.843 2.436,-0.51 0.283,-0.085 0.311,-0.057 0.624,-0.113 1.246,-0.228 4.871,-1.05 4.816,-1.163 4.815,-1.248 4.758,-1.361 2.352,-0.738 2.379,-0.709 4.702,-1.533 2.322,-0.822 2.351,-0.795 0.453,-0.397 1.898,-0.879 1.869,-0.852 1.784,-0.851 1.728,-0.823 1.615,-0.851 1.586,-0.822 1.501,-0.795 1.445,-0.794 1.331,-0.795 1.303,-0.794 1.19,-0.795 1.161,-0.737 1.048,-0.794 0.991,-0.738 0.906,-0.738 0.878,-0.737 0.736,-0.738 0.709,-0.738 0.623,-0.737 0.567,-0.681 0.453,-0.738 0.425,-0.681 0.34,-0.681 0.283,-0.68 0.17,-0.682 0.113,-0.68 0.028,-0.653 0,-0.624 -0.113,-0.652 -0.17,-0.625 -0.255,-0.624 -0.283,-0.596 0,-0.056 -0.85,-1.107 -0.849,-1.05 -0.878,-1.021 -0.879,-0.937 -0.935,-0.936 -0.906,-0.879 -0.963,-0.851 -0.934,-0.795 -1.02,-0.794 -1.019,-0.738 -1.049,-0.709 -1.048,-0.624 -1.104,-0.653 -1.077,-0.567 -1.132,-0.539 -1.105,-0.482 -1.189,-0.483 -1.191,-0.425 -1.218,-0.398 -1.217,-0.34 -1.275,-0.34 -1.274,-0.256 -1.303,-0.227 -1.304,-0.17 -1.359,-0.198 -1.359,-0.114 -1.388,-0.085 -1.388,-0.028 -1.445,-0.029 -1.416,0.057 -1.473,0.057 -1.472,0.142 -0.907,0 -1.048,0 -1.048,0 -1.133,0 -1.161,0.056 -1.218,0 -1.275,0.057 -1.331,0.028 -1.36,0.057 -1.444,0.028 -1.473,0.057 -1.558,0.057 -1.557,0.085 -1.672,0.057 -1.671,0.085 -1.756,0.057 -1.784,0.113 -1.87,0.057 -1.898,0.113 -1.954,0.085 -2.01,0.114 -2.069,0.085 -2.124,0.113 -2.18,0.114 -2.182,0.142 -2.294,0.113 -2.322,0.142 -2.38,0.114 -2.407,0.17 -2.493,0.142 -2.521,0.17 -2.577,0.17 -2.634,0.171 0.963,1.078 0.963,1.049 0.963,0.993 1.019,0.993 0.963,0.88 0.991,0.879 0.963,0.823 1.021,0.794 0.963,0.71 0.991,0.68 0.963,0.653 1.019,0.624 0.963,0.539 1.02,0.511 0.964,0.483 1.019,0.425 0,0 -0.821,0.114 -0.737,0.17 -0.709,0.198 -0.594,0.256 -0.595,0.255 -0.481,0.312 -0.454,0.312 -0.368,0.397 -0.368,0.369 -0.255,0.426 -0.198,0.425 -0.142,0.511 -0.085,0.511 -0.028,0.567 0.028,0.567 0.114,0.624 0.538,-0.113 0.566,-0.056 1.048,-0.029 0.991,0.029 0.992,0.141 0.907,0.199 0.878,0.312 0.821,0.369 0.765,0.482 -0.482,0.312 -0.368,0.454 -0.368,0.567 -0.255,0.71 -0.255,0.823 -0.17,0.964 -0.142,1.078 -0.056,1.22 0.028,0.88 0.17,0.936 0.283,0.993 0.425,1.106 0.538,1.107 0.708,1.22 0.821,1.276 0.963,1.334 0.51,0.653 0.567,0.709 1.218,1.447 1.331,1.504 0.708,0.766 z"
       id="polygon25065"
       inkscape:connector-curvature="0" />
    <path
       transform="matrix(0.57871264,0,0,0.57600705,-29.773864,907.63484)"
       style="fill:none;fill-rule:evenodd;stroke:#000000;stroke-width:1.73202074;stroke-opacity:1"
       d="m 349.662,118.791 -0.51,0.539 -0.453,0.595 -0.283,0.71 -0.142,0.34 -0.085,0.397 -0.085,0.851 0,0.937 0.17,1.049 0.085,0.511 0.141,0.568 0.142,0.567 0.198,0.624 0.453,1.277 0.624,1.39 1.302,0.936 1.331,1.078 1.361,1.22 1.387,1.391 1.388,1.475 1.416,1.645 1.416,1.788 1.474,1.929 1.925,2.639 1.926,2.695 1.954,2.752 1.984,2.837 1.982,2.865 1.983,2.923 2.011,2.979 2.039,3.092 1.983,3.036 2.011,3.092 2.04,3.149 2.067,3.207 2.067,3.262 2.097,3.32 2.096,3.376 2.124,3.433 1.756,2.893 0.198,0.341 0.226,0.369 0.455,0.737 0.906,1.476 3.455,5.844 2.265,3.916 0.54,0.964 0.566,0.993 1.133,1.986 2.18,3.915 2.153,3.972 2.096,3.916 1.02,1.957 1.048,1.986 2.011,3.915 1.982,3.944 0.396,0.795 0.398,0.709 0.396,0.595 0.454,0.539 0.141,0.256 0.198,0.255 0.227,0.228 0.283,0.255 0.283,0.169 0.369,0.2 0.368,0.17 0.424,0.198 0.425,0.114 0.482,0.142 0.51,0.113 0.566,0.113 0.566,0.057 0.652,0.086 0.652,0.056 0.736,0.057 -0.538,-1.249 -0.369,-1.22 -0.226,-1.219 -0.057,-1.163 0.057,-1.192 0.226,-1.135 0.369,-1.135 0.538,-1.107 1.388,0.369 1.359,0.398 2.663,0.822 2.493,0.88 1.217,0.482 1.19,0.511 1.133,0.483 1.104,0.539 2.154,1.106 1.019,0.567 0.991,0.596 0.963,0.596 0.963,0.652 -0.085,-0.85 -0.141,-0.767 -0.199,-0.737 -0.198,-0.681 -0.311,-0.682 -0.312,-0.595 -0.368,-0.568 -0.425,-0.51 0.963,0.028 0.991,0.113 0.935,0.114 0.964,0.199 0.877,0.198 0.907,0.312 0.878,0.313 0.878,0.396 0.793,0.398 0.821,0.482 0.793,0.483 0.793,0.567 0.736,0.596 0.737,0.652 0.708,0.681 0.708,0.766 0.057,-0.624 0.057,-0.567 0.028,-0.539 0.028,-0.454 -0.028,-0.483 -0.028,-0.397 -0.085,-0.369 -0.057,-0.312 -0.141,-0.341 -0.114,-0.254 -0.17,-0.228 -0.17,-0.17 -0.226,-0.17 -0.198,-0.113 -0.255,-0.086 -0.255,-0.028 0.453,-0.142 0.538,-0.085 0.566,-0.057 0.652,0.029 0.651,0.028 0.765,0.113 0.764,0.114 0.85,0.199 0.85,0.198 0.935,0.284 0.935,0.283 1.048,0.37 1.048,0.368 1.132,0.454 1.161,0.482 1.247,0.539 -0.114,-1.446 -0.141,-1.334 -0.142,-0.652 -0.113,-0.596 -0.283,-1.163 -0.397,-1.107 -0.425,-0.993 -0.255,-0.482 -0.254,-0.426 -0.539,-0.822 -0.339,-0.426 -0.34,-0.369 -0.368,-0.369 -0.34,-0.312 -0.822,-0.595 -0.424,-0.285 -0.397,-0.226 -0.481,-0.256 -0.482,-0.198 -0.509,-0.199 -0.483,-0.142 -0.538,-0.17 -0.538,-0.113 -0.566,-0.114 -0.539,-0.056 -2.152,-0.058 -2.067,-0.028 -2.012,-0.057 -1.954,0 -1.898,-0.056 -1.813,-0.057 -1.784,-0.057 -1.671,-0.028 -1.303,-0.085 -1.218,-0.057 -2.351,-0.114 -2.209,-0.17 -1.048,-0.085 -0.991,-0.056 -0.991,-0.114 -0.936,-0.085 -1.756,-0.171 -0.849,-0.113 -0.793,-0.085 -1.445,-0.17 -0.878,-0.171 -0.821,-0.17 -0.766,-0.169 -0.708,-0.143 -0.651,-0.198 -0.595,-0.17 -0.538,-0.171 -0.453,-0.17 -0.425,-0.227 -0.368,-0.17 -0.311,-0.227 -0.199,-0.17 -0.198,-0.228 -0.085,-0.198 -0.085,-0.227 0.028,-0.199 0.142,-0.851 0.198,-0.766 0.227,-0.709 0.283,-0.652 0.283,-0.653 0.368,-0.539 0.369,-0.511 0.424,-0.425 0.425,-0.426 0.482,-0.341 0.481,-0.311 0.567,-0.199 0.566,-0.199 0.624,-0.113 0.623,-0.085 0.708,0.029 -0.821,-0.654 -0.794,-0.596 -0.793,-0.539 -0.765,-0.482 -1.557,-0.822 -0.737,-0.369 -0.736,-0.255 -0.765,-0.256 -0.736,-0.198 -0.736,-0.142 -0.681,-0.086 -1.416,-0.028 -0.68,0.028 -0.679,0.143 0.084,-0.824 0.142,-0.765 0.198,-0.709 0.255,-0.597 0.283,-0.596 0.369,-0.51 0.424,-0.482 0.482,-0.369 0.481,-0.369 0.568,-0.312 0.594,-0.255 0.708,-0.142 0.708,-0.142 0.765,-0.028 0.821,-0.029 0.907,0.086 -2.181,-1.05 -2.067,-0.88 -2.012,-0.709 -1.898,-0.539 -1.84,-0.426 -0.907,-0.141 -0.849,-0.057 -1.672,-0.085 -1.558,0.113 0.029,-1.106 0.056,-0.539 0.142,-0.483 0.368,-0.936 0.226,-0.454 0.312,-0.398 0.312,-0.425 0.396,-0.369 0.879,-0.709 0.481,-0.341 0.567,-0.283 0.566,-0.284 0.652,-0.226 -5.977,-2.952 -2.011,-1.843 -1.87,-1.731 -0.906,-0.88 -0.85,-0.822 -1.586,-1.617 -0.793,-0.823 -0.708,-0.766 -1.331,-1.504 -1.218,-1.447 -0.567,-0.709 -0.51,-0.653 -0.963,-1.334 -0.821,-1.276 -0.708,-1.22 -0.538,-1.107 -0.425,-1.106 -0.283,-0.993 -0.17,-0.936 -0.028,-0.88 0.056,-1.22 0.142,-1.078 0.17,-0.964 0.255,-0.823 0.255,-0.71 0.368,-0.567 0.368,-0.454 0.482,-0.312 -0.765,-0.482 -0.821,-0.369 -0.878,-0.312 -0.907,-0.199 -0.992,-0.141 -0.991,-0.029 -1.048,0.029 -0.566,0.056 -0.538,0.113 0,0 -0.114,-0.624 -0.028,-0.567 0.028,-0.567 0.085,-0.511 0.142,-0.511 0.198,-0.425 0.255,-0.426 0.368,-0.369 0.368,-0.397 0.454,-0.312 0.481,-0.312 0.595,-0.255 0.594,-0.256 0.709,-0.198 0.737,-0.17 0.821,-0.114 -1.019,-0.425 -0.964,-0.483 -1.02,-0.511 -0.963,-0.539 -1.019,-0.624 -0.963,-0.653 -0.991,-0.68 -0.963,-0.71 -1.021,-0.794 -0.963,-0.823 -0.991,-0.879 -0.963,-0.88 -1.019,-0.993 -0.963,-0.993 -0.963,-1.049 -0.963,-1.078 -2.493,-3.32 -1.275,-1.617 -1.246,-1.561 -2.548,-3.035 -2.55,-2.866 -2.606,-2.752 -1.331,-1.333 -1.304,-1.277 -2.662,-2.468 -2.662,-2.298 -1.133,0.085 -0.963,0.198 -0.878,0.284 -0.737,0.369 z"
       id="polygon25067"
       inkscape:connector-curvature="0" />
    <path
       transform="matrix(0.57871264,0,0,0.57600705,-29.773864,907.63484)"
       style="fill:none;fill-rule:evenodd;stroke:#000000;stroke-width:1.73202074;stroke-opacity:1"
       d="m 363.484,198.684 -0.567,-0.596 -0.566,-0.624 -0.481,-0.596 -0.51,-0.652 -0.425,-0.624 -0.793,-1.249 -0.681,-1.305 -0.283,-0.652 -0.226,-0.624 0,0 -0.595,0 -0.595,0 -0.708,0.028 -0.736,0.057 -0.85,0.028 -0.878,0.057 -0.991,0.056 -0.992,0.114 0.369,0.823 0.425,0.85 0.425,0.824 0.509,0.85 0.51,0.767 0.567,0.794 0.566,0.766 0.651,0.766 0.623,0.709 0.708,0.738 0.708,0.681 0.765,0.709 0.766,0.653 0.849,0.653 0.85,0.624 0.906,0.652 0.397,-0.028 0.396,-0.029 0.368,-0.056 0.17,-0.029 0.198,0 0.312,-0.113 0.142,-0.058 0.17,-0.028 0.283,-0.113 0.283,-0.113 0.227,-0.17 0.226,-0.171 0.17,-0.199 0.198,-0.169 0.057,-0.143 0.085,-0.113 0.141,-0.227 0.114,-0.256 0.113,-0.226 -0.765,-0.624 -0.679,-0.596 -1.303,-1.192 z"
       id="polygon25069"
       inkscape:connector-curvature="0" />
    <path
       transform="matrix(0.57871264,0,0,0.57600705,-29.773864,907.63484)"
       style="fill:none;fill-rule:evenodd;stroke:#000000;stroke-width:1.73202074;stroke-opacity:1"
       d="m 359.66,191.733 -0.708,0.029 0.226,0.624 0.283,0.652 0.681,1.305 0.793,1.249 0.425,0.624 0.51,0.652 0.481,0.596 0.566,0.624 0.567,0.596 0.623,0.624 1.303,1.192 0.679,0.596 0.765,0.624 0.228,-0.085 0.254,-0.057 0.085,-0.057 0.114,-0.028 0.226,-0.057 0.17,-0.114 0.17,-0.085 0.142,-0.113 0.17,-0.085 0.198,-0.284 0.141,-0.283 0.029,-0.171 0,-0.085 0.028,-0.057 0.028,-0.341 -1.302,-0.85 -1.162,-0.88 -1.105,-0.907 -0.991,-0.937 -0.935,-1.021 -0.425,-0.539 -0.368,-0.511 -0.396,-0.568 -0.34,-0.539 -0.34,-0.567 -0.283,-0.539 0,0 -0.397,-0.142 -0.509,-0.056 z"
       id="polygon25071"
       inkscape:connector-curvature="0" />
    <path
       transform="matrix(0.57871264,0,0,0.57600705,-29.773864,907.63484)"
       style="fill:none;fill-rule:evenodd;stroke:#000000;stroke-width:1.73202074;stroke-opacity:1"
       d="m 368.837,199.818 0.369,-0.567 0.311,-0.511 0.255,-0.51 0.255,-0.51 0.141,-0.568 0.085,-0.51 0.029,-0.511 0,-0.511 -0.114,-0.567 -0.141,-0.511 -0.198,-0.511 -0.255,-0.51 -0.34,-0.54 -0.368,-0.51 -0.425,-0.511 -0.482,-0.511 0,0 -1.53,0.057 -1.642,0.113 -1.756,0.143 -1.841,0.198 0.283,0.539 0.34,0.567 0.34,0.539 0.396,0.568 0.368,0.511 0.425,0.539 0.935,1.021 0.991,0.937 1.105,0.907 1.162,0.88 z"
       id="polygon25073"
       inkscape:connector-curvature="0" />
    <path
       transform="matrix(0.57871264,0,0,0.57600705,-29.773864,907.63484)"
       style="fill:none;fill-rule:evenodd;stroke:#000000;stroke-width:1.73202074;stroke-opacity:1"
       d="m 353.882,208.245 0.057,0 0.113,0 0.227,0 0.453,0 0.85,-0.17 0.396,-0.114 0.425,-0.113 0.17,-0.114 0.085,-0.056 0.113,-0.029 0.396,-0.199 0.737,-0.453 0.679,-0.596 0.68,-0.681 -1.897,-1.646 -0.878,-0.85 -0.765,-0.795 -0.765,-0.851 -0.708,-0.823 -1.217,-1.702 -1.049,-1.759 -0.821,-1.759 -0.369,-0.908 -0.254,-0.88 -0.227,-0.907 -0.142,-0.88 -2.548,0 -2.494,0.057 0.085,1.021 0.143,1.078 0.198,1.022 0.255,1.078 0.651,2.043 0.425,1.02 0.482,1.05 1.048,1.986 0.594,0.965 0.708,1.022 0.708,0.964 0.793,0.993 0.822,0.965 0.907,0.993 0,0 0.906,0.056 z"
       id="polygon25075"
       inkscape:connector-curvature="0" />
    <path
       transform="matrix(0.57871264,0,0,0.57600705,-29.773864,907.63484)"
       style="fill:none;fill-rule:evenodd;stroke:#000000;stroke-width:1.73202074;stroke-opacity:1"
       d="m 353.033,199.053 1.217,1.702 0.708,0.823 0.765,0.851 0.765,0.795 0.878,0.85 1.897,1.646 0,0 0.283,0.028 0.143,0 0.17,0.028 0.255,0 0.283,0 0.51,-0.113 0.226,-0.085 0.114,-0.057 0.056,-0.028 0.085,0 0.397,-0.284 0.17,-0.17 0.198,-0.17 0.34,-0.426 0.056,-0.141 0.085,-0.114 0.17,-0.227 -0.906,-0.652 -0.85,-0.624 -0.849,-0.653 -0.766,-0.653 -0.765,-0.709 -0.708,-0.681 -0.708,-0.738 -0.623,-0.709 -0.651,-0.766 -0.566,-0.766 -0.567,-0.794 -0.51,-0.767 -0.509,-0.85 -0.425,-0.824 -0.425,-0.85 -0.369,-0.823 -0.084,-0.057 -0.143,-0.057 -0.226,-0.028 -0.255,0 -0.368,-0.028 -0.368,0 -0.482,0 -0.51,0.028 0.142,0.88 0.227,0.907 0.254,0.88 0.369,0.908 0.821,1.759 z"
       id="polygon25077"
       inkscape:connector-curvature="0" />
    <path
       transform="matrix(0.57871264,0,0,0.57600705,-29.773864,907.63484)"
       style="fill:none;fill-rule:evenodd;stroke:#000000;stroke-width:1.73202074;stroke-opacity:1"
       d="m 342.524,195.279 0.255,1.135 0.255,1.078 0.311,1.135 0.765,2.213 0.934,2.156 0.539,1.078 0.595,1.135 0.595,1.078 0.708,1.107 0.708,1.078 0.821,1.134 0.652,-0.056 0.651,-0.057 0.566,-0.113 0.114,-0.057 0.056,-0.028 0.085,0 0.283,-0.057 0.199,-0.113 0.226,-0.086 0.425,-0.226 0.369,-0.285 0.142,-0.17 0.17,-0.141 -0.907,-0.993 -0.822,-0.965 -0.793,-0.993 -0.708,-0.964 -0.708,-1.022 -0.594,-0.965 -1.048,-1.986 -0.482,-1.05 -0.425,-1.02 -0.651,-2.043 -0.255,-1.078 -0.198,-1.022 -0.143,-1.078 -0.085,-1.021 0,0 -2.917,0.028 0.029,1.078 0.141,1.078 z"
       id="polygon25079"
       inkscape:connector-curvature="0" />
    <path
       transform="matrix(0.57871264,0,0,0.57600705,-29.773864,907.63484)"
       style="fill:none;fill-rule:evenodd;stroke:#000000;stroke-width:1.73202074;stroke-opacity:1"
       d="m 335.188,201.663 -0.312,-1.277 -0.254,-1.305 -0.199,-1.305 -0.17,-1.362 -0.085,-1.333 -0.028,-1.362 0.028,-1.362 0,0 -0.056,-0.056 -0.085,0 -0.113,-0.029 -0.142,0 -0.198,-0.057 -0.227,0 -0.566,0 -0.623,-0.028 -0.51,0.085 -0.227,0.057 -0.17,0.113 -0.283,0.312 0,1.334 0.057,1.361 0.085,1.334 0.17,1.362 0.17,1.305 0.226,1.333 0.255,1.306 0.34,1.333 0.312,1.276 0.396,1.306 0.425,1.276 0.51,1.306 1.076,2.553 0.594,1.249 0.68,1.276 0.51,0 0.51,-0.028 0.509,-0.085 0.511,-0.114 0.227,-0.114 0.113,-0.056 0.057,-0.029 0.085,0 0.509,-0.198 0.51,-0.256 0.51,-0.311 -0.821,-1.163 -0.708,-1.136 -0.681,-1.163 -0.595,-1.163 -0.594,-1.22 -0.51,-1.191 -0.482,-1.249 -0.368,-1.22 z"
       id="polygon25081"
       inkscape:connector-curvature="0" />
    <path
       transform="matrix(0.57871264,0,0,0.57600705,-29.773864,907.63484)"
       style="fill:none;fill-rule:evenodd;stroke:#000000;stroke-width:1.73202074;stroke-opacity:1"
       d="m 342.524,195.279 -0.142,-1.078 -0.141,-1.078 -0.029,-1.078 0,0 -0.764,0 -0.822,0 -0.906,0 -0.934,0.057 -1.078,0.028 -1.104,0.057 -1.189,0.056 -1.247,0.114 -0.028,1.362 0.028,1.362 0.085,1.333 0.17,1.362 0.199,1.305 0.254,1.305 0.312,1.277 0.368,1.305 0.368,1.22 0.482,1.249 0.51,1.191 0.594,1.22 0.595,1.163 0.681,1.163 0.708,1.136 0.821,1.163 0.595,-0.057 0.623,-0.028 1.189,-0.143 1.133,-0.226 1.133,-0.313 0.511,-0.227 0.254,-0.113 0.284,-0.085 1.019,-0.482 0.482,-0.284 0.509,-0.284 0.963,-0.625 -0.821,-1.134 -0.708,-1.078 -0.708,-1.107 -0.595,-1.078 -0.595,-1.135 -0.539,-1.078 -0.934,-2.156 -0.765,-2.213 -0.311,-1.135 -0.255,-1.078 z"
       id="polygon25083"
       inkscape:connector-curvature="0" />
    <path
       transform="matrix(0.57871264,0,0,0.57600705,-29.773864,907.63484)"
       style="fill:none;fill-rule:evenodd;stroke:#000000;stroke-width:1.73202074;stroke-opacity:1"
       d="m 320.544,192.102 0,0 -0.368,-0.057 -0.453,0 -0.566,0 -0.68,0 -1.331,0 -0.198,1.645 -0.142,1.674 -0.113,1.617 -0.028,1.646 -0.029,1.589 0.085,1.645 0.085,1.589 0.17,1.617 0.17,1.561 0.255,1.589 0.255,1.532 0.368,1.561 0.368,1.503 0.425,1.532 0.481,1.504 0.538,1.532 0.284,0.028 0.396,0.113 0.482,0.142 0.594,0.199 0.283,0.029 0.34,0 0.312,-0.085 0.34,-0.115 0.34,-0.254 0.339,-0.285 0.341,-0.368 0.397,-0.397 -0.568,-1.476 -0.481,-1.446 -0.482,-1.476 -0.396,-1.447 -0.397,-1.504 -0.311,-1.475 -0.538,-3.007 -0.425,-3.064 -0.142,-1.56 -0.056,-1.533 -0.085,-1.588 0,-1.561 0.028,-1.589 z"
       id="polygon25085"
       inkscape:connector-curvature="0" />
    <path
       transform="matrix(0.57871264,0,0,0.57600705,-29.773864,907.63484)"
       style="fill:none;fill-rule:evenodd;stroke:#000000;stroke-width:1.73202074;stroke-opacity:1"
       d="m 333.404,207.28 -0.425,-1.276 -0.396,-1.306 -0.312,-1.276 -0.34,-1.333 -0.255,-1.306 -0.226,-1.333 -0.17,-1.305 -0.17,-1.362 -0.085,-1.334 -0.057,-1.361 0,-1.334 0,-0.142 0,0 -1.955,-0.255 -1.982,-0.142 -2.068,-0.085 -2.068,-0.028 -0.453,0 -0.538,0 -0.623,0 -0.737,0 -0.113,1.56 -0.028,1.589 0,1.561 0.085,1.588 0.056,1.533 0.142,1.56 0.425,3.064 0.538,3.007 0.311,1.475 0.397,1.504 0.396,1.447 0.482,1.476 0.481,1.446 0.568,1.476 0.793,-0.085 0.764,-0.057 0.737,-0.085 0.736,-0.057 1.359,-0.17 0.623,-0.085 0.623,-0.057 1.078,-0.228 0.509,-0.113 0.51,-0.085 0.453,-0.113 0.425,-0.113 0.793,-0.228 0.623,-0.283 0.538,-0.228 0.453,-0.198 0.397,-0.141 0.255,-0.171 0.198,-0.114 0.085,-0.085 0.028,-0.028 -0.68,-1.276 -0.594,-1.249 -1.076,-2.553 z"
       id="polygon25087"
       inkscape:connector-curvature="0" />
    <path
       transform="matrix(0.57871264,0,0,0.57600705,-29.773864,907.63484)"
       style="fill:none;fill-rule:evenodd;stroke:#000000;stroke-width:1.73202074;stroke-opacity:1"
       d="m 310.773,218.913 0.765,0.113 0.736,0.057 0.736,0.028 0.68,-0.028 0.68,-0.085 0.141,-0.057 0.17,-0.028 0.34,-0.058 0.68,-0.141 0,0 1.162,-0.426 1.076,-0.34 0.991,-0.312 0.906,-0.255 -0.538,-1.532 -0.481,-1.504 -0.425,-1.532 -0.368,-1.503 -0.368,-1.561 -0.255,-1.532 -0.255,-1.589 -0.17,-1.561 -0.17,-1.617 -0.085,-1.589 -0.085,-1.645 0.029,-1.589 0.028,-1.646 0.113,-1.617 0.142,-1.674 0.198,-1.645 -3.513,-0.057 -3.426,-0.028 -0.255,-0.028 -0.284,0 -0.311,0 -0.341,0 -0.396,0 -0.425,0 -0.453,0 -0.482,0.028 -0.198,1.702 -0.142,1.702 -0.085,1.702 -0.028,1.732 -0.028,1.674 0.085,1.702 0.085,1.674 0.17,1.702 0.17,1.645 0.254,1.674 0.255,1.646 0.369,1.673 0.821,3.291 0.482,1.646 0.538,1.646 0.368,0.056 z"
       id="polygon25089"
       inkscape:connector-curvature="0" />
    <path
       transform="matrix(0.57871264,0,0,0.57600705,-29.773864,907.63484)"
       style="fill:none;fill-rule:evenodd;stroke:#000000;stroke-width:1.73202074;stroke-opacity:1"
       d="m 205.633,182.995 2.295,0.539 2.379,0.538 2.351,0.483 2.436,0.51 2.464,0.455 2.521,0.482 1.331,0.113 1.473,0.171 1.586,0.17 1.699,0.198 0.425,-0.482 0.51,-0.454 0.538,-0.51 0.624,-0.482 0.623,-0.539 0.708,-0.511 0.736,-0.539 0.821,-0.511 0.822,-0.596 0.878,-0.567 0.935,-0.596 0.991,-0.567 0.992,-0.654 1.104,-0.624 1.104,-0.652 1.219,-0.624 1.189,-0.709 1.275,-0.681 1.303,-0.738 1.388,-0.709 1.387,-0.766 1.473,-0.738 1.501,-0.766 1.587,-0.738 1.586,-0.822 1.671,-0.795 1.671,-0.823 1.785,-0.822 1.784,-0.88 1.869,-0.851 1.898,-0.879 1.954,-0.852 3.343,-1.588 3.228,-1.504 3.117,-1.503 3.058,-1.448 2.889,-1.446 2.804,-1.362 2.663,-1.362 2.606,-1.277 2.436,-1.305 2.322,-1.22 2.21,-1.22 2.152,-1.163 1.983,-1.163 1.925,-1.078 1.757,-1.079 1.699,-0.993 -99.446,5.363 0,0 -2.096,0.482 -2.011,0.567 -2.011,0.624 -1.897,0.738 -1.898,0.766 -1.813,0.851 -1.785,0.936 -1.699,1.022 -1.444,0.879 -1.388,0.937 -1.36,0.993 -1.303,1.078 -1.303,1.106 -1.246,1.164 -1.218,1.219 -1.161,1.277 -1.161,1.277 -1.105,1.39 -1.105,1.419 -1.019,1.503 -1.02,1.504 -0.963,1.589 -0.963,1.617 -0.878,1.73 0.85,-0.425 0.878,-0.341 0.85,-0.312 0.878,-0.198 1.699,-0.312 0.85,-0.085 0.878,0 1.642,0.085 0.822,0.142 0.85,0.198 1.642,0.539 0.793,0.369 0.85,0.426 1.87,0.709 1.954,0.709 1.954,0.682 2.04,0.68 2.039,0.624 2.096,0.653 2.124,0.624 2.21,0.624 2.181,0.539 z"
       id="polygon25091"
       inkscape:connector-curvature="0" />
    <path
       transform="matrix(0.57871264,0,0,0.57600705,-29.773864,907.63484)"
       style="fill:none;fill-rule:evenodd;stroke:#000000;stroke-width:1.73202074;stroke-opacity:1"
       d="m 88.938,168.554 0.142,-0.284 0.113,-0.284 0.085,-0.34 0.056,-0.341 0,-0.425 0,-0.426 -0.056,-0.482 -0.057,-0.482 -2.691,-2.157 -1.302,-1.106 -1.247,-1.078 -1.274,-1.135 -1.218,-1.107 -2.351,-2.241 -1.161,-1.191 -1.105,-1.163 -1.105,-1.192 -1.048,-1.163 -2.067,-2.412 -1.926,-2.44 -0.963,-1.277 -0.907,-1.248 -0.878,-1.277 -0.821,-1.248 -0.822,-1.305 -0.764,-1.277 -1.445,-2.553 -1.331,-2.61 -1.19,-2.611 -1.076,-2.667 -0.51,-1.333 -0.425,-1.305 0,0 -0.566,-0.596 -0.51,-0.482 -0.481,-0.426 -0.397,-0.284 -0.425,-0.227 -0.34,-0.113 -0.312,-0.028 -0.226,0.085 -0.255,0.142 -0.17,0.255 -0.141,0.312 -0.085,0.454 -0.085,0.511 -0.029,0.624 0,0.709 0.085,0.823 1.275,2.639 0.651,1.305 0.709,1.333 1.444,2.61 1.529,2.61 1.587,2.554 1.67,2.582 0.851,1.248 0.906,1.277 1.869,2.553 1.955,2.582 2.095,2.61 2.153,2.553 1.105,1.277 1.161,1.305 2.322,2.497 1.19,1.248 1.246,1.277 2.521,2.468 2.634,2.497 0,0.056 0.397,0.029 0.368,0 0.34,-0.029 0.34,-0.056 0.283,-0.114 0.114,-0.085 0.141,-0.057 0.227,-0.17 0.085,-0.113 z"
       id="polygon25093"
       inkscape:connector-curvature="0" />
    <path
       transform="matrix(0.57871264,0,0,0.57600705,-29.773864,907.63484)"
       style="fill:none;fill-rule:evenodd;stroke:#000000;stroke-width:1.73202074;stroke-opacity:1"
       d="m 91.232,153.006 -1.105,-1.021 -1.047,-0.993 -2.068,-2.043 -1.048,-1.106 -0.991,-1.078 -1.955,-2.213 -1.897,-2.299 -1.842,-2.355 -0.934,-1.248 -0.85,-1.22 -0.849,-1.248 -0.794,-1.22 -0.793,-1.276 -0.708,-1.249 -1.331,-2.553 -0.652,-1.334 -0.566,-1.305 -0.567,-1.333 -0.509,-1.306 -0.51,-1.361 -0.425,-1.334 -0.765,-2.723 -0.567,-0.596 -0.481,-0.483 -0.481,-0.397 -0.397,-0.283 -0.396,-0.227 -0.34,-0.085 -0.312,-0.029 -0.226,0.085 -0.255,0.142 -0.17,0.255 -0.142,0.313 -0.085,0.453 -0.085,0.511 -0.028,0.624 0,0.71 0.085,0.822 0,0 1.048,2.185 1.161,2.27 1.218,2.298 1.275,2.269 1.331,2.299 1.388,2.241 1.444,2.269 1.501,2.213 1.615,2.27 0.142,0.199 1.784,2.468 1.841,2.44 1.869,2.411 1.926,2.384 1.926,2.298 1.983,2.298 1.983,2.241 2.039,2.213 0.227,0 0.113,0 0.057,0 0.085,0.029 0.453,0.028 0.028,-0.028 0.057,0 0.113,0 0.226,0 0.397,-0.029 0.312,-0.113 0.312,-0.114 0.254,-0.17 0.227,-0.17 0.057,-0.142 0.085,-0.114 0.056,-0.141 0.085,-0.114 0.028,-0.17 0.057,-0.142 0.057,-0.34 0,-0.397 -0.029,-0.227 0,-0.199 -0.085,-0.454 -0.056,-0.256 -0.028,-0.226 -2.295,-1.873 z"
       id="polygon25095"
       inkscape:connector-curvature="0" />
    <path
       style="fill:none;fill-rule:evenodd;stroke:#000000;stroke-width:0.99999648;stroke-opacity:1"
       id="path25097"
       d="m 20.302141,1005.1148 -0.0162,0.016 0,0.082 -0.03299,0.082 -0.03299,0.1469 -0.0654,0.1469 -0.06539,0.1803 -0.08218,0.1958 -0.08218,0.2448 -0.09838,0.2454 -0.04919,0.3105 -0.0162,0.3433 0.04919,0.3761 0.0654,0.4084 0.114585,0.4412 0.147571,0.4741 0.212967,0.5397 0.09838,0.2615 0.147571,0.3105 0.147572,0.3266 0.196762,0.3594 0.196763,0.3594 0.245953,0.3923 0.245953,0.4084 0.295143,0.4579 0.295143,0.4412 0.327552,0.4908 0.344334,0.5063 0.393524,0.5397 0.393525,0.5397 0.425932,0.572 0.442716,0.5881 0.491905,0.6371 0.475123,0.6048 0.50811,0.6048 0.50811,0.5881 0.541096,0.5881 1.097818,1.1117 1.163791,1.0621 1.196199,0.9965 1.262172,0.9643 0.638899,0.4418 0.672464,0.4573 1.392962,0.8663 0.04919,0.049 0.114585,0.049 0.409729,0.2454 0.442715,0.2454 0.5573,0.1141 0.557301,0.1146 0.524313,0.098 0.541097,0.098 0.508109,0.066 0.114585,0 0.131368,0.016 0.262157,0.033 0.475123,0.033 0.491906,0.033 0.360538,-0.016 0.360538,-0.016 0.163775,-0.033 0.08218,-0.016 0.09838,0 0.360538,-0.033 0.32813,-0.066 0.327551,-0.065 0.311348,-0.098 0.06539,-0.033 0.08218,-0.016 0.163776,-0.033 0.278361,-0.1313 0.131368,-0.065 0.06539,-0.033 0.08218,-0.016 0.262157,-0.1474 0.262157,-0.1308 0.229749,-0.1803 0.245953,-0.163 0.22917,-0.1964 0.22917,-0.1797 0.180558,-0.2287 0.196763,-0.2287 0.163775,-0.2454 0.08218,-0.1307 0.09838,-0.1141 0.06539,-0.1474 0.08218,-0.1308 0.0654,-0.1474 0.08218,-0.1308 0.131368,-0.2943 0.147572,-0.2944 0.09838,-0.3433 0.09838,-0.3266 0.08218,-0.3594 0.09838,-0.3433 0.0162,-0.1964 0.03299,-0.1803 0.06539,-0.3756 0,-0.114 0.0162,-0.099 0.03299,-0.1958 0.04919,-0.3923 -0.0162,-1.5034 -0.0162,-1.4711 -0.0654,-1.4711 -0.08218,-1.4706 -0.131368,-1.5033 -0.147572,-1.4712 -0.180558,-1.4705 -0.213545,-1.4711 -0.245953,-1.5034 -0.278361,-1.4706 -0.311347,-1.4711 -0.327551,-1.4705 -0.376742,-1.4873 -0.377321,-1.47053 -0.425932,-1.47054 -0.442716,-1.47112 -9.539499,0 -1.180573,0.14688 -1.082193,0.17971 -1.049206,0.21255 -0.950825,0.27763 -0.475123,0.13076 -0.442715,0.16358 -0.835661,0.3433 -0.787049,0.37614 -0.360538,0.19584 -0.327552,0.22867 0.0162,0.13076 0.03299,0.14688 0.04919,0.26151 0,0.11462 0.0162,0.13075 0,0.22868 -0.03299,0.19584 -0.03299,0.0818 -0.0162,0.0979 -0.04919,0.0657 -0.03299,0.0818 -0.04919,0.0657 -0.03299,0.0818 -0.131368,0.0979 -0.144678,0.0985 -0.180559,0.0651 -0.180558,0.0651 -0.229749,0.0167 -0.131368,0 -0.06481,0 -0.03299,0 -0.0162,0.0161 -0.262157,-0.0161 -0.04919,-0.0167 -0.03299,0 -0.06539,0 -0.131367,0 -0.295144,0.24539 -0.262157,0.3105 -0.262156,0.3105 -0.245953,0.3755 -0.245953,0.3761 -0.22917,0.4413 -0.229171,0.4412 -0.196762,0.5069 0.03299,0.2776 0.03299,0.2776 0,0.2454 0,0.2448 -0.03299,0.1964 -0.04919,0.1959 -0.06539,0.1636 -0.08218,0.1636 -0.06539,0.049 -0.04919,0.066 -0.131367,0.098 -0.08218,0.033 -0.06539,0.049 -0.163776,0.065 -0.196762,0.033 -0.196762,0.016 -0.212967,0 -0.230327,-0.016 0,0 z m 9.540078,0.2615 -0.0162,-0.4902 0.03299,-0.4573 0.04919,-0.4574 0.114585,-0.4251 0.114585,-0.4245 0.163776,-0.3922 0.180558,-0.3756 0.245953,-0.3433 0.22917,-0.36 0.27894,-0.3266 0.311347,-0.3266 0.344334,-0.2943 0.360538,-0.2944 0.409729,-0.2615 0.426511,-0.24535 0.475123,-0.21254 0.376742,0.71889 0.360538,0.7517 0.295143,0.7194 0.278361,0.7517 0.196762,0.7194 0.180559,0.7517 0.114585,0.7189 0.08218,0.7516 0.0162,0.7195 -0.0162,0.3594 0,0.3761 -0.0654,0.7189 -0.09838,0.7517 -0.164354,0.7194 -0.09838,0.3589 -0.09838,0.3761 -0.262157,0.7189 -0.278361,0.7516 -0.573504,-0.2943 -0.50811,-0.2943 -0.475702,-0.3266 -0.442715,-0.3105 -0.409728,-0.3433 -0.376742,-0.3433 -0.344334,-0.3756 -0.27894,-0.3594 -0.278361,-0.3922 -0.212966,-0.3923 -0.114585,-0.2126 -0.08218,-0.1958 -0.147572,-0.4084 -0.147572,-0.4412 -0.08218,-0.4412 -0.04919,-0.4574 -0.0162,-0.4585 0,0 z m -4.491389,6.3735 -0.03299,-0.2776 0.0162,-0.2281 0.0162,-0.2125 0.04919,-0.163 0.04919,-0.1803 0.08218,-0.1308 0.08218,-0.1146 0.131367,-0.082 0.114586,-0.082 0.147571,-0.033 0.147572,-0.033 0.196762,0.017 0.196763,0.016 0.22917,0.049 0.229749,0.065 0.262156,0.1141 0.09838,0.3594 0.131367,0.3761 0.278361,0.7517 0.311348,0.7517 0.344334,0.7523 0.376742,0.735 0.409728,0.7522 0.442715,0.735 0.50811,0.7517 0.50811,0.7194 0.541096,0.735 0.573504,0.7189 0.638899,0.7356 0.639477,0.7188 0.704872,0.7189 0.721076,0.7194 0.770846,0.735 -0.901635,-0.6538 -0.852443,-0.6209 -0.83624,-0.6538 -0.770267,-0.6209 -0.754062,-0.6538 -0.704872,-0.6538 -0.671886,-0.6543 -0.638898,-0.6371 -0.606491,-0.6699 -0.573504,-0.6537 -0.541097,-0.6699 -0.475123,-0.6538 -0.458919,-0.686 -0.410307,-0.6682 -0.376742,-0.6866 -0.344334,-0.6538 0,0 z"
       inkscape:connector-curvature="0" />
    <path
       transform="matrix(0.57871264,0,0,0.57600705,-29.773864,907.63484)"
       style="fill:none;fill-rule:evenodd;stroke:#000000;stroke-width:1.73202074;stroke-opacity:1"
       d="m 111.71,164.922 -0.481,-1.305 -0.51,-1.248 -0.623,-1.306 -0.651,-1.248 0,0 -0.821,0.369 -0.737,0.426 -0.708,0.453 -0.623,0.511 -0.595,0.511 -0.538,0.567 -0.482,0.568 -0.397,0.624 -0.424,0.596 -0.312,0.652 -0.283,0.681 -0.198,0.738 -0.199,0.738 -0.085,0.794 -0.056,0.794 0.028,0.851 0.028,0.795 0.085,0.794 0.142,0.766 0.255,0.767 0.255,0.709 0.141,0.34 0.199,0.369 0.368,0.681 0.481,0.681 0.482,0.624 0.595,0.652 0.651,0.596 0.708,0.596 0.765,0.539 0.822,0.567 0.878,0.511 0.991,0.511 0.481,-1.305 0.453,-1.248 0.17,-0.654 0.17,-0.623 0.284,-1.249 0.17,-1.305 0.113,-1.248 0,-0.653 0.028,-0.624 -0.028,-1.248 -0.141,-1.305 -0.199,-1.248 -0.312,-1.306 z"
       id="polygon25099"
       inkscape:connector-curvature="0" />
    <path
       transform="matrix(0.57871264,0,0,0.57600705,-29.773864,907.63484)"
       style="fill:none;fill-rule:evenodd;stroke:#000000;stroke-width:1.73202074;stroke-opacity:1"
       d="m 98.965,179.817 -0.227,-0.653 -0.17,-0.624 0,0 -0.453,-0.198 -0.397,-0.113 -0.396,-0.085 -0.34,-0.029 -0.34,-0.029 -0.255,0.058 -0.255,0.056 -0.198,0.142 -0.226,0.141 -0.142,0.2 -0.142,0.226 -0.085,0.313 -0.085,0.283 -0.028,0.369 -0.028,0.397 0.056,0.482 0.595,1.135 0.651,1.192 0.708,1.163 0.794,1.192 0.821,1.134 0.935,1.163 0.991,1.135 1.048,1.163 1.105,1.107 1.161,1.135 1.218,1.135 1.303,1.135 1.331,1.078 1.445,1.135 1.473,1.078 1.558,1.135 -1.332,-1.277 -1.246,-1.249 -1.218,-1.248 -1.105,-1.248 -1.104,-1.277 -0.991,-1.248 -0.936,-1.276 -0.877,-1.249 -0.878,-1.305 -0.765,-1.277 -0.709,-1.305 -0.651,-1.277 -0.595,-1.305 -0.538,-1.305 z"
       id="polygon25101"
       inkscape:connector-curvature="0" />
    <path
       transform="matrix(0.57871264,0,0,0.57600705,-29.773864,907.63484)"
       style="fill:none;fill-rule:evenodd;stroke:#000000;stroke-width:1.73202074;stroke-opacity:1"
       d="m 156.689,197.691 0.595,-0.454 0.51,-0.539 0.538,-0.51 0.51,-0.568 0.538,-0.567 0.482,-0.624 0.51,-0.625 0.962,-1.333 0.425,-0.738 0.453,-0.738 0.199,-0.397 0.226,-0.369 0.454,-0.766 0.396,-0.822 0.085,-0.228 0.114,-0.198 0.226,-0.398 0.793,-1.758 0.51,-1.248 0.595,-1.164 0.651,-1.134 0.708,-1.078 0.227,-0.398 0.878,-1.22 0.963,-1.134 1.048,-1.136 1.133,-1.05 0.878,-1.73 0.963,-1.617 0.963,-1.589 1.02,-1.504 1.019,-1.503 1.105,-1.419 1.105,-1.39 1.161,-1.277 1.161,-1.277 1.218,-1.219 1.246,-1.164 1.303,-1.106 1.303,-1.078 1.36,-0.993 1.388,-0.937 1.444,-0.879 -1.104,-0.936 -1.162,-0.852 -1.218,-0.822 -1.246,-0.709 -1.331,-0.71 -1.388,-0.652 -1.444,-0.596 -1.502,-0.511 -1.614,-0.51 -1.615,-0.426 -1.699,-0.397 -1.728,-0.312 -1.841,-0.313 -1.841,-0.198 -1.954,-0.17 -1.955,-0.085 -2.096,-0.085 -2.124,-0.029 -2.181,0.029 -2.238,0.113 -2.322,0.142 -2.351,0.198 -2.436,0.256 -2.464,0.312 -2.578,0.312 -2.605,0.426 -2.691,0.454 -2.691,0.539 -2.804,0.539 -2.832,0.624 -2.918,0.652 -2.946,0.766 0.765,2.554 0.736,2.553 0.652,2.553 0.651,2.582 0.567,2.554 0.538,2.553 0.481,2.554 0.425,2.61 0.369,2.554 0.311,2.552 0.255,2.554 0.227,2.61 0.141,2.553 0.114,2.554 0.028,2.554 0.028,2.61 0,0 0.142,0.822 0.255,0.823 0.311,0.766 0.425,0.709 0.482,0.653 0.254,0.284 0.312,0.312 0.652,0.539 0.34,0.255 0.396,0.284 0.765,0.425 0.878,0.426 0.963,0.341 1.048,0.311 1.104,0.256 0.567,0.085 0.623,0.113 1.275,0.142 0.651,0.057 0.708,0.085 0.85,0.029 0.425,0 0.453,0.028 0.85,-0.028 0,-0.029 0.028,0 0.057,0 0.113,0 0.227,0 0.453,0 1.416,-0.199 0.68,-0.141 0.34,-0.085 0.368,-0.057 0.311,-0.113 0.34,-0.086 0.68,-0.198 0.142,-0.085 0.17,-0.057 0.339,-0.113 0.681,-0.228 1.246,-0.624 0.594,-0.341 0.623,-0.34 0.567,-0.397 0.595,-0.397 z"
       id="polygon25103"
       inkscape:connector-curvature="0" />
    <path
       transform="matrix(0.57871264,0,0,0.57600705,-29.773864,907.63484)"
       style="fill:none;fill-rule:evenodd;stroke:#000000;stroke-width:1.73202074;stroke-opacity:1"
       d="m 126.099,204.103 -0.453,0.255 -0.142,0.029 -0.113,0.056 -0.226,0.114 -0.482,0.227 -0.283,0.057 -0.142,0.028 -0.113,0.057 -0.538,0.17 -0.566,0.113 -0.567,0.114 -0.623,0.057 -0.17,0 -0.142,0.028 -0.283,0.057 -0.623,0.028 -0.623,0.028 2.294,4.057 28.466,0.028 0.084,-1.048 0.085,-0.483 0.142,-0.426 0.113,-0.425 0.17,-0.37 0.199,-0.368 0.254,-0.312 0.227,-0.341 0.284,-0.283 0.283,-0.256 0.368,-0.198 0.34,-0.199 0.396,-0.141 0.425,-0.143 0.482,-0.056 0.453,-0.085 0.509,-0.029 0.539,-0.028 0.595,0.057 0.566,0.056 0.623,0.114 0.652,0.114 0.708,0.198 0.68,-0.454 0.651,-0.454 0.623,-0.511 0.283,-0.283 0.057,-0.085 0.085,-0.057 0.17,-0.114 0.113,-0.17 0.057,-0.085 0.085,-0.056 0.283,-0.285 0.51,-0.624 0.482,-0.68 0.453,-0.681 0.396,-0.767 0.17,-0.397 0.029,-0.113 0.056,-0.085 0.113,-0.17 0.34,-0.823 0.312,-0.851 0.255,-0.908 0.113,-0.483 0.142,-0.454 0.198,-0.965 0.085,-0.509 0.113,-0.483 0.198,-1.873 0.284,-1.702 0.312,-1.589 0.396,-1.389 0.368,-1.363 0.425,-1.163 0.453,-1.021 0.51,-0.851 0.481,-0.767 0.567,-0.595 0.567,-0.454 0.623,-0.284 0.594,-0.199 0.652,-0.028 0.679,0.085 0.766,0.284 0.453,-0.681 0.453,-0.567 0.481,-0.511 0.51,-0.426 0.482,-0.369 0.509,-0.283 0.539,-0.227 0.566,-0.114 0.51,-0.085 0.566,0 0.567,0.085 0.595,0.17 0.566,0.228 0.624,0.311 0.623,0.369 0.651,0.483 0.708,0.596 0.736,0.737 0.765,0.823 0.793,0.937 0.793,0.992 0.793,1.136 0.822,1.219 0.85,1.333 1.132,1.93 1.218,1.929 1.275,1.873 1.331,1.9 1.331,1.817 1.445,1.815 1.501,1.787 1.558,1.788 1.558,1.702 1.643,1.731 1.671,1.674 1.784,1.673 1.785,1.618 1.869,1.617 1.898,1.56 2.011,1.561 1.274,0.935 1.331,1.022 16.797,0 16.74,0 -0.397,-1.589 -0.255,-1.56 -0.114,-1.588 0.057,-1.533 0.17,-1.588 0.34,-1.533 0.453,-1.589 0.623,-1.532 -1.246,0.653 -1.218,0.625 -1.218,0.567 -1.161,0.539 -1.161,0.482 -1.133,0.454 -1.133,0.425 -1.077,0.369 -1.104,0.312 -1.048,0.284 -1.048,0.227 -0.992,0.199 -0.991,0.142 -0.963,0.113 -0.963,0.085 -0.906,0.028 -1.275,-0.085 -1.218,-0.141 -1.189,-0.255 -1.105,-0.284 -1.105,-0.398 -1.048,-0.454 -1.019,-0.539 -0.935,-0.596 -1.077,-1.248 -0.877,-1.191 -0.765,-1.248 -0.567,-1.193 -0.453,-1.248 -0.283,-1.248 -0.142,-1.249 0.028,-1.248 0.142,-1.305 0.312,-1.249 0.453,-1.304 0.651,-1.248 0.765,-1.306 0.425,-0.652 0.51,-0.624 1.076,-1.305 1.246,-1.306 -1.699,-0.198 -1.586,-0.17 -1.473,-0.171 -1.331,-0.113 -2.521,-0.482 -2.464,-0.455 -2.436,-0.51 -2.351,-0.483 -2.379,-0.538 -2.295,-0.539 -2.265,-0.568 -2.181,-0.539 -2.21,-0.624 -2.124,-0.624 -2.096,-0.653 -2.039,-0.624 -2.04,-0.68 -1.954,-0.682 -1.954,-0.709 -1.87,-0.709 -0.85,-0.426 -0.793,-0.369 -1.642,-0.539 -0.85,-0.198 -0.822,-0.142 -1.642,-0.085 -0.878,0 -0.85,0.085 -1.699,0.312 -0.878,0.198 -0.85,0.312 -0.878,0.341 -0.85,0.425 -1.133,1.05 -1.048,1.136 -0.963,1.134 -0.878,1.22 -0.227,0.398 -0.708,1.078 -0.651,1.134 -0.595,1.164 -0.51,1.248 -0.793,1.758 -0.226,0.398 -0.114,0.198 -0.085,0.228 -0.396,0.822 -0.454,0.766 -0.226,0.369 -0.199,0.397 -0.453,0.738 -0.425,0.738 -0.962,1.333 -0.51,0.625 -0.482,0.624 -0.538,0.567 -0.51,0.568 -0.538,0.51 -0.51,0.539 -0.595,0.454 -0.566,0.454 -0.595,0.397 -0.567,0.397 -0.623,0.34 -0.594,0.341 -1.246,0.624 -0.681,0.228 -0.339,0.113 -0.17,0.057 -0.142,0.085 -0.68,0.198 -0.34,0.086 -0.311,0.113 -0.368,0.057 -0.34,0.085 -0.68,0.141 -1.416,0.199 -0.453,0 -0.227,0 -0.113,0 -0.057,0 -0.028,0 0,0.029 -0.85,0.028 -0.453,-0.028 -0.425,0 -0.85,-0.029 0,0 -0.708,-0.085 -0.651,-0.057 -1.275,-0.142 -0.623,-0.113 -0.567,-0.085 -1.104,-0.256 -1.048,-0.311 -0.963,-0.341 -0.878,-0.426 -0.765,-0.425 -0.396,-0.284 -0.34,-0.255 -0.652,-0.539 -0.312,-0.312 -0.254,-0.284 -0.482,-0.653 -0.425,-0.709 -0.311,-0.766 -0.255,-0.823 -0.142,-0.822 -0.085,0.681 -0.056,0.339 -0.029,0.171 0,0.199 -0.113,0.652 -0.057,0.312 -0.028,0.341 -0.17,0.596 -0.141,0.624 -0.17,0.567 -0.17,0.596 -0.256,0.511 -0.226,0.511 -0.142,0.226 -0.113,0.256 -0.142,0.227 -0.113,0.255 -0.17,0.199 -0.141,0.226 -0.284,0.426 -0.339,0.397 -0.312,0.398 -0.396,0.311 -0.397,0.341 -0.425,0.283 -0.397,0.313 z"
       id="polygon25105"
       inkscape:connector-curvature="0" />
    <path
       transform="matrix(0.57871264,0,0,0.57600705,-29.773864,907.63484)"
       style="fill:none;fill-rule:evenodd;stroke:#000000;stroke-width:1.73202074;stroke-opacity:1"
       d="m 112.305,223.168 2.974,-1.446 3.088,-1.278 1.529,-0.595 1.586,-0.539 3.201,-0.994 3.257,-0.935 3.314,-0.767 3.371,-0.624 3.427,-0.482 3.484,-0.368 3.541,-0.228 3.597,-0.085 3.654,0.085 0.708,-0.17 0.679,-0.17 0.567,-0.171 0.538,-0.17 0.255,-0.113 0.226,-0.171 0.227,-0.141 0.397,-0.34 0.085,-0.228 0.028,-0.113 0.057,-0.085 -0.029,-0.227 -0.028,-0.17 -0.142,-0.227 -0.169,-0.228 -0.256,-0.226 -0.255,-0.228 -0.368,-0.283 -0.425,-0.227 -0.481,-0.284 -0.482,-0.227 -0.594,-0.283 -0.652,-0.284 -0.708,-0.284 -0.113,-0.056 -0.085,-0.029 -0.17,-0.056 -0.368,-0.115 -28.466,-0.028 0,0 -0.17,0 -1.756,0.738 -1.671,0.766 -1.615,0.737 -1.501,0.739 -0.765,0.339 -0.708,0.37 -1.388,0.738 -0.68,0.34 -0.623,0.369 -1.218,0.737 -1.189,0.681 -1.105,0.681 -1.019,0.681 -0.935,0.681 -0.878,0.624 -0.793,0.681 -0.737,0.624 -0.651,0.681 -0.255,0.539 -0.198,0.568 -0.142,0.454 -0.085,0.454 -0.028,0.396 0.056,0.426 0.085,0.369 0.142,0.369 0.198,0.34 0.283,0.341 0.255,0.283 0.369,0.284 0.396,0.227 0.481,0.256 0.482,0.17 0.595,0.198 0.623,0.143 0.708,0.169 0.312,-0.113 0.368,-0.085 0.481,-0.227 0.538,-0.255 0.567,-0.341 0.595,-0.369 0.595,-0.482 0.623,-0.51 0.651,-0.596 z"
       id="polygon25107"
       inkscape:connector-curvature="0" />
    <path
       transform="matrix(0.57871264,0,0,0.57600705,-29.773864,907.63484)"
       style="fill:none;fill-rule:evenodd;stroke:#000000;stroke-width:1.73202074;stroke-opacity:1"
       d="m 101.344,221.466 -0.991,0.454 -0.284,0.085 -0.255,0.113 -0.509,0.228 -1.02,0.425 -0.567,0.17 -0.283,0.085 -0.255,0.114 -1.076,0.397 -0.566,0.17 -0.284,0.086 -0.254,0.113 -1.105,0.397 -1.19,0.312 -1.161,0.341 -1.19,0.283 -1.189,0.313 -1.247,0.255 -1.246,0.284 -0.651,0.113 -0.624,0.142 -0.651,0.113 -0.623,0.143 -1.36,0.198 -1.331,0.226 -1.359,0.171 -1.36,0.199 -1.416,0.141 -1.417,0.171 -1.444,0.113 -0.736,0.057 -0.368,0.028 -0.34,0.057 -0.397,0 -0.368,0.028 -0.737,0.057 -0.396,0 -0.368,0.028 -0.737,0.058 -1.53,0.056 -1.529,0.085 -1.586,0.029 -1.586,0.056 -1.614,0 -1.587,0.029 -0.708,0.397 -0.651,0.454 -0.595,0.397 -0.538,0.454 -0.539,0.397 -0.424,0.454 -0.425,0.397 -0.312,0.454 -0.311,0.397 -0.255,0.455 -0.368,0.85 -0.199,0.852 0.029,0.851 1.218,0.17 0.623,0.057 0.679,0.085 0.652,0.028 0.708,0.057 1.473,0.056 1.501,-0.028 1.614,-0.057 1.672,-0.113 0.849,-0.085 0.907,-0.056 1.813,-0.228 1.897,-0.255 1.955,-0.312 2.067,-0.369 2.125,-0.425 2.209,-0.454 1.105,-0.285 1.161,-0.255 2.351,-0.539 0,0 1.076,-0.255 1.076,-0.199 2.096,-0.369 2.011,-0.311 1.955,-0.256 1.841,-0.198 0.878,-0.085 0.906,-0.029 1.699,-0.085 1.643,0.029 0.255,-0.029 0.34,-0.056 0.34,-0.086 0.397,-0.085 0.396,-0.142 0.453,-0.17 0.482,-0.199 0.538,-0.198 0.51,-0.284 0.595,-0.284 0.594,-0.312 0.68,-0.34 0.652,-0.397 0.736,-0.398 0.737,-0.426 0.821,-0.453 -0.368,0.085 -0.312,0.113 -0.708,-0.169 -0.623,-0.143 -0.595,-0.198 -0.482,-0.17 -0.481,-0.256 -0.396,-0.227 -0.369,-0.284 -0.255,-0.283 -0.283,-0.341 -0.198,-0.34 -0.142,-0.369 -0.085,-0.369 -0.056,-0.426 0.028,-0.396 0.085,-0.454 0.142,-0.454 -0.057,-0.454 -0.028,-0.398 z"
       id="polygon25109"
       inkscape:connector-curvature="0" />
    <path
       transform="matrix(0.57871264,0,0,0.57600705,-29.773864,907.63484)"
       style="fill:none;fill-rule:evenodd;stroke:#000000;stroke-width:1.73202074;stroke-opacity:1"
       d="m 306.835,197.066 0.085,-1.702 0.142,-1.702 0.198,-1.702 0,0 -0.17,-0.057 -0.283,-0.028 -0.198,-0.028 -0.227,0 -0.255,0 -0.283,0 -0.906,-0.029 -0.85,0 -0.368,1.759 -0.255,1.787 -0.255,1.759 -0.141,1.76 -0.142,1.73 -0.028,1.759 0.028,1.702 0.085,1.759 0.085,1.703 0.198,1.702 0.085,0.823 0.142,0.851 0.311,1.702 0.312,1.646 0.425,1.674 0.481,1.645 0.538,1.646 0.623,0.312 0.623,0.227 0.284,0.056 0.311,0.057 0.623,0 0.51,-0.142 0.511,-0.226 0.226,-0.171 0.255,-0.17 0.453,-0.397 -0.538,-1.646 -0.482,-1.646 -0.821,-3.291 -0.369,-1.673 -0.255,-1.646 -0.254,-1.674 -0.17,-1.645 -0.17,-1.702 -0.085,-1.674 -0.085,-1.702 0.028,-1.674 z"
       id="polygon25111"
       inkscape:connector-curvature="0" />
    <path
       transform="matrix(0.57871264,0,0,0.57600705,-29.773864,907.63484)"
       style="fill:none;fill-rule:evenodd;stroke:#000000;stroke-width:1.73202074;stroke-opacity:1"
       d="m 304.145,214.26 -0.312,-1.646 -0.311,-1.702 -0.142,-0.851 -0.085,-0.823 -0.198,-1.702 -0.085,-1.703 -0.085,-1.759 -0.028,-1.702 0.028,-1.759 0.142,-1.73 0.141,-1.76 0.255,-1.759 0.255,-1.787 0.368,-1.759 0,0 -5.098,-0.142 -5.042,-0.113 -0.595,1.758 -0.538,1.76 -0.482,1.759 -0.396,1.787 -0.368,1.759 -0.255,1.76 -0.198,1.758 -0.142,1.816 -0.113,1.759 -0.028,1.788 0.028,1.758 0.113,1.816 0.142,1.76 0.255,1.815 0.311,1.759 0.368,1.816 0.623,0.142 0.652,0.17 1.246,0.256 1.19,0.17 0.567,0.056 0.594,0.057 0.538,0 0.567,0 0.51,-0.029 0.113,-0.028 0.142,0 0.283,0 0.226,-0.056 0.114,-0.029 0.141,0 0.51,-0.085 0.481,-0.114 0.51,-0.085 0.851,-0.283 0.793,-0.228 0.708,-0.198 0.623,-0.142 0.51,-0.142 0.424,-0.085 0.34,-0.085 0.283,-0.028 -0.538,-1.646 -0.481,-1.645 z"
       id="polygon25113"
       inkscape:connector-curvature="0" />
    <path
       transform="matrix(0.57871264,0,0,0.57600705,-29.773864,907.63484)"
       style="fill:none;fill-rule:evenodd;stroke:#000000;stroke-width:1.73202074;stroke-opacity:1"
       d="m 284.799,214.544 -0.198,-1.76 -0.17,-1.815 -0.085,-1.759 -0.028,-1.816 0.057,-1.759 0.084,-1.816 0.057,-0.908 0.113,-0.879 0.255,-1.816 0.312,-1.759 0.368,-1.815 0.425,-1.76 0.481,-1.816 0.595,-1.758 0,0 -0.878,-0.057 -0.935,-0.057 -1.019,-0.057 -0.283,-0.029 -0.255,0 -0.538,0 -0.595,-0.056 -0.17,-0.029 -0.142,0 -0.283,0 -1.217,-0.056 -1.333,-0.057 -1.359,-0.056 -1.019,1.758 -0.907,1.759 -0.821,1.76 -0.68,1.815 -0.623,1.759 -0.481,1.788 -0.426,1.759 -0.283,1.815 -0.227,1.759 -0.085,1.788 0,1.759 0.114,1.815 0.17,1.759 0.311,1.817 0.398,1.758 0.538,1.816 0.509,0.171 0.567,0.198 0.595,0.142 0.651,0.171 0.623,0.084 0.68,0.114 0.708,0.056 0.764,0.085 0.737,0 0.794,0.029 0.793,-0.029 0.849,-0.028 1.728,-0.142 0.906,-0.113 0.963,-0.085 -0.425,-1.816 -0.368,-1.816 z"
       id="polygon25115"
       inkscape:connector-curvature="0" />
    <path
       transform="matrix(0.57871264,0,0,0.57600705,-29.773864,907.63484)"
       style="fill:none;fill-rule:evenodd;stroke:#000000;stroke-width:1.73202074;stroke-opacity:1"
       d="m 291.314,202.146 0.255,-1.76 0.368,-1.759 0.396,-1.787 0.482,-1.759 0.538,-1.76 0.595,-1.758 0,0 -0.623,-0.057 -0.34,-0.028 -0.312,0 -0.764,-0.057 -0.793,0 -0.907,-0.057 -0.962,0 -1.077,-0.056 -1.105,0 -0.595,1.758 -0.481,1.816 -0.425,1.76 -0.368,1.815 -0.312,1.759 -0.255,1.816 -0.113,0.879 -0.057,0.908 -0.084,1.816 -0.057,1.759 0.028,1.816 0.085,1.759 0.17,1.815 0.198,1.76 0.312,1.815 0.368,1.816 0.425,1.816 0.849,0.312 0.85,0.256 0.397,0.056 0.085,0 0.114,0.029 0.226,0.056 0.793,0.057 0.737,-0.057 0.736,-0.141 0.68,-0.256 0.679,-0.312 -0.368,-1.816 -0.311,-1.759 -0.255,-1.815 -0.142,-1.76 -0.113,-1.816 -0.028,-1.758 0.028,-1.788 0.113,-1.759 0.142,-1.816 z"
       id="polygon25117"
       inkscape:connector-curvature="0" />
    <path
       transform="matrix(0.57871264,0,0,0.57600705,-29.773864,907.63484)"
       style="fill:none;fill-rule:evenodd;stroke:#000000;stroke-width:1.73202074;stroke-opacity:1"
       d="m 272.79,213.947 -0.17,-1.759 -0.114,-1.815 0,-1.759 0.085,-1.788 0.227,-1.759 0.283,-1.815 0.426,-1.759 0.481,-1.788 0.623,-1.759 0.68,-1.815 0.821,-1.76 0.907,-1.759 1.019,-1.758 -6.883,-0.398 -2.549,1.759 -0.708,1.645 -0.623,1.647 -0.566,1.645 -0.453,1.646 -0.398,1.645 -0.311,1.646 -0.255,1.645 -0.17,1.646 -0.113,1.645 -0.029,1.646 0.029,1.645 0.113,1.646 0.17,1.645 0.255,1.646 0.341,1.645 0.425,1.674 0.764,0.511 0.878,0.397 0.878,0.284 0.963,0.17 0.963,0 1.048,-0.057 1.048,-0.227 0.567,-0.141 0.595,-0.171 0,0 -0.538,-1.816 -0.398,-1.758 z"
       id="polygon25119"
       inkscape:connector-curvature="0" />
    <path
       transform="matrix(0.57871264,0,0,0.57600705,-29.773864,907.63484)"
       style="fill:none;fill-rule:evenodd;stroke:#000000;stroke-width:1.73202074;stroke-opacity:1"
       d="m 250.98,204.074 0,0 -0.623,1.532 -0.453,1.589 -0.34,1.533 -0.17,1.588 -0.057,1.533 0.114,1.588 0.255,1.56 0.397,1.589 0.085,0 0.254,0.199 0.312,0.227 0.736,0.397 0.793,0.34 0.935,0.313 0.991,0.254 0.539,0.086 0.594,0.114 0.567,0.056 0.623,0.085 1.36,0.114 0.878,0.028 0.962,0.028 0.964,0 1.048,0 1.048,-0.056 1.132,-0.029 1.161,-0.085 1.248,-0.085 -0.425,-1.674 -0.341,-1.645 -0.255,-1.646 -0.17,-1.645 -0.113,-1.646 -0.029,-1.645 0.029,-1.646 0.113,-1.645 0.17,-1.646 0.255,-1.645 0.311,-1.646 0.398,-1.645 0.453,-1.646 0.566,-1.645 0.623,-1.647 0.708,-1.645 -15.436,10.498 -1.162,0.681 z"
       id="polygon25121"
       inkscape:connector-curvature="0" />
    <path
       transform="matrix(0.57871264,0,0,0.57600705,-29.773864,907.63484)"
       style="fill:none;fill-rule:evenodd;stroke:#000000;stroke-width:1.73202074;stroke-opacity:1"
       d="m 235.855,226.119 -0.169,0.142 -0.794,0.51 1.728,0.114 1.756,0.199 1.728,0.227 1.756,0.284 3.399,0.624 1.671,0.368 1.699,0.454 3.286,0.937 1.615,0.539 1.642,0.624 1.586,0.595 1.615,0.681 3.172,1.476 0.652,0.312 0.623,0.368 0.51,0.369 0.481,0.426 0.341,0.398 0.31,0.453 0.227,0.482 0.17,0.511 0.028,0.511 0,0.539 -0.085,0.567 -0.14,0.596 -0.256,0.596 -0.312,0.625 -0.396,0.652 -0.453,0.709 0.679,-0.255 0.681,-0.228 0.65,-0.283 0.623,-0.256 1.134,-0.567 0.51,-0.312 0.51,-0.284 0.425,-0.341 0.198,-0.169 0.226,-0.142 0.397,-0.369 0.368,-0.341 0.312,-0.397 0.056,-0.113 0.085,-0.086 0.17,-0.17 0.283,-0.397 0.114,-0.198 0.141,-0.17 0.17,-0.454 0.17,-0.426 0.142,-0.454 0.113,-0.426 0.056,-0.481 0.057,-0.455 0.028,-0.51 0,-0.483 -0.056,-0.284 -0.029,-0.142 0,-0.113 -0.084,-0.511 -0.227,-1.078 -0.198,-0.567 -0.114,-0.284 -0.056,-0.142 -0.029,-0.113 -0.226,-0.596 -0.255,-0.567 0,0 -0.538,-0.681 -0.538,-0.625 -0.595,-0.624 -0.595,-0.539 -0.679,-0.567 -0.68,-0.483 -0.736,-0.482 -0.738,-0.425 -0.821,-0.454 -0.821,-0.369 -0.878,-0.369 -0.878,-0.312 -0.935,-0.312 -0.963,-0.255 -1.02,-0.256 -1.019,-0.17 -1.53,-0.312 -1.472,-0.227 -1.473,-0.198 -1.388,-0.143 -1.388,-0.142 -1.332,-0.056 -1.331,-0.029 -1.246,0.057 -1.275,0.028 -1.189,0.114 -1.19,0.142 -1.133,0.227 -1.133,0.198 -1.047,0.284 -1.048,0.313 -0.964,0.396 0.057,0.256 0.028,0.283 0,0.568 -0.056,0.114 -0.029,0.057 0,0.085 -0.085,0.283 -0.113,0.284 -0.142,0.283 -0.198,0.228 -0.226,0.255 -0.255,0.227 -0.283,0.283 -0.34,0.228 z"
       id="polygon25123"
       inkscape:connector-curvature="0" />
    <path
       transform="matrix(0.57871264,0,0,0.57600705,-29.773864,907.63484)"
       style="fill:none;fill-rule:evenodd;stroke:#000000;stroke-width:1.73202074;stroke-opacity:1"
       d="m 190.083,188.584 -1.132,-1.93 -0.85,-1.333 -0.822,-1.219 -0.793,-1.136 -0.793,-0.992 -0.793,-0.937 -0.765,-0.823 -0.736,-0.737 -0.708,-0.596 -0.651,-0.483 -0.623,-0.369 -0.624,-0.311 -0.566,-0.228 -0.595,-0.17 -0.567,-0.085 -0.566,0 -0.51,0.085 -0.566,0.114 -0.539,0.227 -0.509,0.283 -0.482,0.369 -0.51,0.426 -0.481,0.511 -0.453,0.567 -0.453,0.681 0.509,0.567 0.482,0.624 0.425,0.624 0.368,0.625 0.311,0.567 0.255,0.625 0.198,0.624 0.17,0.624 0.085,0.567 0.057,0.624 -0.028,0.624 -0.029,0.624 -0.141,0.625 -0.142,0.624 -0.198,0.624 -0.255,0.624 0.396,0.029 0.397,0.141 0.396,0.143 0.426,0.227 0.396,0.254 0.397,0.313 0.849,0.766 0.793,0.936 0.85,1.163 0.397,0.652 0.396,0.71 0.85,1.561 0.51,0.766 0.566,0.794 1.19,1.588 1.246,1.533 1.331,1.56 1.388,1.504 1.473,1.532 1.529,1.475 0.794,0.738 0.849,0.766 1.671,1.447 1.757,1.476 1.84,1.418 0.936,0.709 0.991,0.738 1.954,1.39 2.068,1.419 2.124,1.39 2.209,1.418 1.105,0.709 1.161,0.71 1.218,0.652 1.303,0.681 1.303,0.624 1.388,0.625 1.416,0.567 1.501,0.596 -0.453,-0.256 -0.368,-0.226 -0.595,-0.511 -0.283,-0.284 -0.198,-0.255 -0.17,-0.313 -0.085,-0.283 -0.113,-0.341 -0.029,-0.311 0.085,-0.682 0.085,-0.368 0.142,-0.341 0.425,-0.737 4.107,1.446 4.22,1.448 2.124,0.68 2.181,0.709 4.39,1.362 0,0 0.794,-0.51 0.169,-0.142 0.199,-0.113 0.34,-0.228 0.283,-0.283 0.255,-0.227 0.226,-0.255 0.198,-0.228 0.142,-0.283 0.113,-0.284 0.085,-0.283 0,-0.085 0.029,-0.057 0.056,-0.114 0,-0.568 -0.028,-0.283 -0.057,-0.256 -0.198,-0.539 -0.17,-0.482 -0.425,-0.936 -0.255,-0.454 -0.226,-0.397 -0.482,-0.766 -0.311,-0.397 -0.283,-0.341 -0.312,-0.34 -0.284,-0.284 -0.679,-0.568 -0.708,-0.482 -16.797,0 -1.331,-1.022 -1.274,-0.935 -2.011,-1.561 -1.898,-1.56 -1.869,-1.617 -1.785,-1.618 -1.784,-1.673 -1.671,-1.674 -1.643,-1.731 -1.558,-1.702 -1.558,-1.788 -1.501,-1.787 -1.445,-1.815 -1.331,-1.817 -1.331,-1.9 -1.275,-1.873 z"
       id="polygon25125"
       inkscape:connector-curvature="0" />
    <path
       transform="matrix(0.57871264,0,0,0.57600705,-29.773864,907.63484)"
       style="fill:none;fill-rule:evenodd;stroke:#000000;stroke-width:1.73202074;stroke-opacity:1"
       d="m 162.864,201.776 -0.51,0.624 -0.283,0.285 -0.085,0.056 -0.057,0.085 -0.113,0.17 -0.17,0.114 -0.085,0.057 -0.057,0.085 -0.283,0.283 -0.623,0.511 -0.651,0.454 -0.68,0.454 -0.652,0.822 -0.255,0.426 -0.17,0.483 -0.169,0.454 -0.085,0.51 -0.029,0.511 0.029,0.539 0.028,0.539 0.141,0.568 0.142,0.567 0.255,0.596 0.595,1.219 0.821,1.334 0.085,-0.056 0.17,0 0.425,0.028 0.255,0.028 0.312,0.085 0.764,0.199 0.397,0.085 0.481,0.142 1.077,0.312 0.566,0.17 0.652,0.227 1.416,0.483 -0.255,-0.739 -0.199,-0.737 -0.141,-0.737 -0.028,-0.71 -0.029,-0.738 0.029,-0.737 0.084,-0.738 0.17,-0.709 0.199,-0.766 0.255,-0.738 0.312,-0.737 0.368,-0.738 0.425,-0.795 0.481,-0.737 0.538,-0.766 0.595,-0.738 0.963,-1.333 0.453,-0.71 0.227,-0.368 0.255,-0.341 0.906,-1.504 0.425,-0.794 0.453,-0.766 0.396,-0.851 0.426,-0.851 0.793,-1.759 0.736,-1.845 0.34,-0.964 0.368,-0.965 0,0 0.255,-0.624 0.198,-0.624 0.142,-0.624 0.141,-0.625 0.029,-0.624 0.028,-0.624 -0.057,-0.624 -0.085,-0.567 -0.17,-0.624 -0.198,-0.624 -0.255,-0.625 -0.311,-0.567 -0.368,-0.625 -0.425,-0.624 -0.482,-0.624 -0.509,-0.567 -0.766,-0.284 -0.679,-0.085 -0.652,0.028 -0.594,0.199 -0.623,0.284 -0.567,0.454 -0.567,0.595 -0.481,0.767 -0.51,0.851 -0.453,1.021 -0.425,1.163 -0.368,1.363 -0.396,1.389 -0.312,1.589 -0.284,1.702 -0.198,1.873 -0.113,0.483 -0.085,0.509 -0.198,0.965 -0.142,0.454 -0.113,0.483 -0.255,0.908 -0.312,0.851 -0.34,0.823 -0.113,0.17 -0.056,0.085 -0.029,0.113 -0.17,0.397 -0.396,0.767 -0.453,0.681 z"
       id="polygon25127"
       inkscape:connector-curvature="0" />
    <path
       transform="matrix(0.57871264,0,0,0.57600705,-29.773864,907.63484)"
       style="fill:none;fill-rule:evenodd;stroke:#000000;stroke-width:1.73202074;stroke-opacity:1"
       d="m 158.247,210.373 -0.142,-0.567 -0.141,-0.568 -0.028,-0.539 -0.029,-0.539 0.029,-0.511 0.085,-0.51 0.169,-0.454 0.17,-0.483 0.255,-0.426 0.652,-0.822 0,0 -0.708,-0.198 -0.652,-0.114 -0.623,-0.114 -0.566,-0.056 -0.595,-0.057 -0.539,0.028 -0.509,0.029 -0.453,0.085 -0.482,0.056 -0.425,0.143 -0.396,0.141 -0.34,0.199 -0.368,0.198 -0.283,0.256 -0.284,0.283 -0.227,0.341 -0.254,0.312 -0.199,0.368 -0.17,0.37 -0.113,0.425 -0.142,0.426 -0.085,0.483 -0.084,1.048 0.368,0.115 0.17,0.056 0.085,0.029 0.113,0.056 0.708,0.284 0.652,0.284 0.594,0.283 0.482,0.227 0.481,0.284 0.425,0.227 0.368,0.283 0.255,0.228 0.256,0.226 0.169,0.228 0.142,0.227 0.028,0.17 0.029,0.227 -0.057,0.085 -0.028,0.113 -0.085,0.228 3.993,0.056 -0.821,-1.334 -0.595,-1.219 z"
       id="polygon25129"
       inkscape:connector-curvature="0" />
    <path
       transform="matrix(0.57871264,0,0,0.57600705,-29.773864,907.63484)"
       style="fill:none;fill-rule:evenodd;stroke:#000000;stroke-width:1.73202074;stroke-opacity:1"
       d="m 186.118,201.89 -1.246,-1.533 -1.19,-1.588 -0.566,-0.794 -0.51,-0.766 -0.85,-1.561 -0.396,-0.71 -0.397,-0.652 -0.85,-1.163 -0.793,-0.936 -0.849,-0.766 -0.397,-0.313 -0.396,-0.254 -0.426,-0.227 -0.396,-0.143 -0.397,-0.141 -0.396,-0.029 -0.368,0.965 -0.34,0.964 -0.736,1.845 -0.793,1.759 -0.426,0.851 -0.396,0.851 -0.453,0.766 -0.425,0.794 -0.906,1.504 -0.255,0.341 -0.227,0.368 -0.453,0.71 -0.963,1.333 0,0 -0.595,0.738 -0.538,0.766 -0.481,0.737 -0.425,0.795 -0.368,0.738 -0.312,0.737 -0.255,0.738 -0.199,0.766 -0.17,0.709 -0.084,0.738 -0.029,0.737 0.029,0.738 0.028,0.71 0.141,0.737 0.199,0.737 0.255,0.739 2.294,0.765 2.379,0.71 2.408,0.653 2.464,0.624 2.464,0.539 2.578,0.482 2.577,0.425 2.663,0.426 2.662,0.312 2.747,0.255 2.748,0.199 2.832,0.198 2.833,0.085 2.917,0.029 2.917,-0.029 3.031,-0.028 -2.209,-1.418 -2.124,-1.39 -2.068,-1.419 -1.954,-1.39 -0.991,-0.738 -0.936,-0.709 -1.84,-1.418 -1.757,-1.476 -1.671,-1.447 -0.849,-0.766 -0.794,-0.738 -1.529,-1.475 -1.473,-1.532 -1.388,-1.504 z"
       id="polygon25131"
       inkscape:connector-curvature="0" />
    <path
       transform="matrix(0.57871264,0,0,0.57600705,-29.773864,907.63484)"
       style="fill:none;stroke:#000000;stroke-width:1.71989727;stroke-linecap:square;stroke-miterlimit:10;stroke-opacity:1"
       d="m 393.281,189.265 -2.124,-3.433 -2.096,-3.376 -2.097,-3.32 -2.067,-3.262 -2.067,-3.207 -2.04,-3.149 -2.011,-3.092 -1.983,-3.036 -2.039,-3.092 -2.011,-2.979 -1.983,-2.923 -1.982,-2.865 -1.984,-2.837 -1.954,-2.752 -1.926,-2.695 -1.925,-2.639"
       id="polyline25139"
       inkscape:connector-curvature="0" />
    <path
       transform="matrix(0.57871264,0,0,0.57600705,-29.773864,907.63484)"
       style="fill:none;stroke:#000000;stroke-width:1.71989727;stroke-linecap:square;stroke-miterlimit:10;stroke-opacity:1"
       d="m 349.917,129.146 -0.624,-1.39 -0.453,-1.277 -0.198,-0.624 -0.142,-0.567 -0.141,-0.568 -0.085,-0.511 -0.17,-1.049 0,-0.937 0.085,-0.851 0.085,-0.397 0.142,-0.34 0.283,-0.71 0.453,-0.595 0.51,-0.539 0.679,-0.426 0.737,-0.369 0.878,-0.284 0.963,-0.198 1.133,-0.085"
       id="polyline25145"
       inkscape:connector-curvature="0" />
    <path
       transform="matrix(0.57871264,0,0,0.57600705,-29.773864,907.63484)"
       style="fill:none;stroke:#000000;stroke-width:1.71989727;stroke-linecap:square;stroke-miterlimit:10;stroke-opacity:1"
       d="m 360.992,140.608 -12.916,1.021 -12.945,1.022"
       id="polyline25149"
       inkscape:connector-curvature="0" />
    <path
       transform="matrix(0.57871264,0,0,0.57600705,-29.773864,907.63484)"
       style="fill:none;stroke:#000000;stroke-width:1.71989727;stroke-linecap:square;stroke-miterlimit:10;stroke-opacity:1"
       d="m 367.959,191.449 4.249,-0.141 5.126,-0.426 5.241,-0.483 5.296,-0.539 5.41,-0.595"
       id="polyline25155"
       inkscape:connector-curvature="0" />
    <path
       transform="matrix(0.57871264,0,0,0.57600705,-29.773864,907.63484)"
       style="fill:none;stroke:#000000;stroke-width:1.71989727;stroke-linecap:square;stroke-miterlimit:10;stroke-opacity:1"
       d="m 352.607,192.102 0.992,-0.114 0.991,-0.056 0.878,-0.057 0.85,-0.028 0.736,-0.057 0.708,-0.028 0.595,0 0.595,0"
       id="polyline25157"
       inkscape:connector-curvature="0" />
    <path
       transform="matrix(0.57871264,0,0,0.57600705,-29.773864,907.63484)"
       style="fill:none;stroke:#000000;stroke-width:1.71989727;stroke-linecap:square;stroke-miterlimit:10;stroke-opacity:1"
       d="m 358.952,191.762 0.708,-0.029 0.624,0.029 0.509,0.056 0.397,0.142"
       id="polyline25159"
       inkscape:connector-curvature="0" />
    <path
       transform="matrix(0.57871264,0,0,0.57600705,-29.773864,907.63484)"
       style="fill:none;stroke:#000000;stroke-width:1.71989727;stroke-linecap:square;stroke-miterlimit:10;stroke-opacity:1"
       d="m 361.19,191.96 1.841,-0.198 1.756,-0.143 1.642,-0.113 1.53,-0.057"
       id="polyline25161"
       inkscape:connector-curvature="0" />
    <path
       transform="matrix(0.57871264,0,0,0.57600705,-29.773864,907.63484)"
       style="fill:none;stroke:#000000;stroke-width:1.71989727;stroke-linecap:square;stroke-miterlimit:10;stroke-opacity:1"
       d="m 366.854,201.72 0.228,-0.085 0.254,-0.057 0.085,-0.057 0.114,-0.028 0.226,-0.057 0.17,-0.114 0.17,-0.085 0.142,-0.113 0.17,-0.085 0.198,-0.284 0.141,-0.283 0.029,-0.171 0,-0.085 0.028,-0.057 0.028,-0.341"
       id="polyline25163"
       inkscape:connector-curvature="0" />
    <path
       transform="matrix(0.57871264,0,0,0.57600705,-29.773864,907.63484)"
       style="fill:none;stroke:#000000;stroke-width:1.71989727;stroke-linecap:square;stroke-miterlimit:10;stroke-opacity:1"
       d="m 362.804,203.961 0.397,-0.028 0.396,-0.029 0.368,-0.056 0.17,-0.029 0.198,0 0.312,-0.113 0.142,-0.058 0.17,-0.028 0.283,-0.113 0.283,-0.113 0.227,-0.17 0.226,-0.171 0.17,-0.199 0.198,-0.169 0.057,-0.143 0.085,-0.113 0.141,-0.227 0.114,-0.256 0.113,-0.226"
       id="polyline25165"
       inkscape:connector-curvature="0" />
    <path
       transform="matrix(0.57871264,0,0,0.57600705,-29.773864,907.63484)"
       style="fill:none;stroke:#000000;stroke-width:1.71989727;stroke-linecap:square;stroke-miterlimit:10;stroke-opacity:1"
       d="m 359.263,205.72 -0.68,0.681 -0.679,0.596 -0.737,0.453 -0.396,0.199 -0.113,0.029 -0.085,0.056 -0.17,0.114 -0.425,0.113 -0.396,0.114 -0.85,0.17 -0.453,0 -0.227,0 -0.113,0 -0.057,0 -0.028,0.028 -0.906,-0.056"
       id="polyline25167"
       inkscape:connector-curvature="0" />
    <path
       transform="matrix(0.57871264,0,0,0.57600705,-29.773864,907.63484)"
       style="fill:none;stroke:#000000;stroke-width:1.71989727;stroke-linecap:square;stroke-miterlimit:10;stroke-opacity:1"
       d="m 362.804,203.961 -0.17,0.227 -0.085,0.114 -0.056,0.141 -0.34,0.426 -0.198,0.17 -0.17,0.17 -0.397,0.284 -0.085,0 -0.056,0.028 -0.114,0.057 -0.226,0.085 -0.51,0.113 -0.283,0 -0.255,0 -0.17,-0.028 -0.143,0 -0.283,-0.028"
       id="polyline25169"
       inkscape:connector-curvature="0" />
    <path
       transform="matrix(0.57871264,0,0,0.57600705,-29.773864,907.63484)"
       style="fill:none;stroke:#000000;stroke-width:1.71989727;stroke-linecap:square;stroke-miterlimit:10;stroke-opacity:1"
       d="m 368.837,199.818 0.369,-0.567 0.311,-0.511 0.255,-0.51 0.255,-0.51 0.141,-0.568 0.085,-0.51 0.029,-0.511 0,-0.511 -0.114,-0.567 -0.141,-0.511 -0.198,-0.511 -0.255,-0.51 -0.34,-0.54 -0.368,-0.51 -0.425,-0.511 -0.482,-0.511"
       id="polyline25171"
       inkscape:connector-curvature="0" />
    <path
       transform="matrix(0.57871264,0,0,0.57600705,-29.773864,907.63484)"
       style="fill:none;stroke:#000000;stroke-width:1.71989727;stroke-linecap:square;stroke-miterlimit:10;stroke-opacity:1"
       d="m 362.804,203.961 -0.906,-0.652 -0.85,-0.624 -0.849,-0.653 -0.766,-0.653 -0.765,-0.709 -0.708,-0.681 -0.708,-0.738 -0.623,-0.709 -0.651,-0.766 -0.566,-0.766 -0.567,-0.794 -0.51,-0.767 -0.509,-0.85 -0.425,-0.824 -0.425,-0.85 -0.369,-0.823"
       id="polyline25175"
       inkscape:connector-curvature="0" />
    <path
       transform="matrix(0.57871264,0,0,0.57600705,-29.773864,907.63484)"
       style="fill:none;stroke:#000000;stroke-width:1.71989727;stroke-linecap:square;stroke-miterlimit:10;stroke-opacity:1"
       d="m 366.854,201.72 -0.765,-0.624 -0.679,-0.596 -1.303,-1.192 -0.623,-0.624 -0.567,-0.596 -0.566,-0.624 -0.481,-0.596 -0.51,-0.652 -0.425,-0.624 -0.793,-1.249 -0.681,-1.305 -0.283,-0.652 -0.226,-0.624"
       id="polyline25177"
       inkscape:connector-curvature="0" />
    <path
       transform="matrix(0.57871264,0,0,0.57600705,-29.773864,907.63484)"
       style="fill:none;stroke:#000000;stroke-width:1.71989727;stroke-linecap:square;stroke-miterlimit:10;stroke-opacity:1"
       d="m 345.129,192.017 2.494,-0.057 2.548,0"
       id="polyline25179"
       inkscape:connector-curvature="0" />
    <path
       style="fill:none;stroke:#000000;stroke-width:0.99299687;stroke-linecap:square;stroke-miterlimit:10;stroke-opacity:1"
       d="m 168.26855,1018.2541 1.6881,-0.016"
       id="line25181"
       inkscape:connector-curvature="0" />
    <path
       transform="matrix(0.57871264,0,0,0.57600705,-29.773864,907.63484)"
       style="fill:none;stroke:#000000;stroke-width:1.71989727;stroke-linecap:square;stroke-miterlimit:10;stroke-opacity:1"
       d="m 330.968,192.754 0.283,-0.312 0.17,-0.113 0.227,-0.057 0.51,-0.085 0.623,0.028 0.566,0 0.227,0 0.198,0.057 0.142,0 0.113,0.029 0.085,0 0.056,0.056"
       id="polyline25183"
       inkscape:connector-curvature="0" />
    <path
       transform="matrix(0.57871264,0,0,0.57600705,-29.773864,907.63484)"
       style="fill:none;stroke:#000000;stroke-width:1.71989727;stroke-linecap:square;stroke-miterlimit:10;stroke-opacity:1"
       d="m 334.168,192.357 1.247,-0.114 1.189,-0.056 1.104,-0.057 1.078,-0.028 0.934,-0.057 0.906,0 0.822,0 0.764,0"
       id="polyline25185"
       inkscape:connector-curvature="0" />
    <path
       transform="matrix(0.57871264,0,0,0.57600705,-29.773864,907.63484)"
       style="fill:none;stroke:#000000;stroke-width:1.71989727;stroke-linecap:square;stroke-miterlimit:10;stroke-opacity:1"
       d="m 317.146,192.045 1.331,0 0.68,0 0.566,0 0.453,0 0.368,0.057"
       id="polyline25187"
       inkscape:connector-curvature="0" />
    <path
       transform="matrix(0.57871264,0,0,0.57600705,-29.773864,907.63484)"
       style="fill:none;stroke:#000000;stroke-width:1.71989727;stroke-linecap:square;stroke-miterlimit:10;stroke-opacity:1"
       d="m 320.544,192.102 0.737,0 0.623,0 0.538,0 0.453,0 2.068,0.028 2.068,0.085 1.982,0.142 1.955,0.255 0,0.142"
       id="polyline25189"
       inkscape:connector-curvature="0" />
    <path
       transform="matrix(0.57871264,0,0,0.57600705,-29.773864,907.63484)"
       style="fill:none;stroke:#000000;stroke-width:1.71989727;stroke-linecap:square;stroke-miterlimit:10;stroke-opacity:1"
       d="m 324.284,216.388 -0.397,0.397 -0.341,0.368 -0.339,0.285 -0.34,0.254 -0.34,0.115 -0.312,0.085 -0.34,0 -0.283,-0.029 -0.594,-0.199 -0.482,-0.142 -0.396,-0.113 -0.284,-0.028"
       id="polyline25191"
       inkscape:connector-curvature="0" />
    <path
       transform="matrix(0.57871264,0,0,0.57600705,-29.773864,907.63484)"
       style="fill:none;stroke:#000000;stroke-width:1.71989727;stroke-linecap:square;stroke-miterlimit:10;stroke-opacity:1"
       d="m 319.836,217.381 -0.906,0.255 -0.991,0.312 -1.076,0.34 -1.162,0.426 -0.68,0.141 -0.34,0.058 -0.17,0.028 -0.141,0.057 -0.68,0.085 -0.68,0.028 -0.736,-0.028 -0.736,-0.057 -0.765,-0.113 -0.397,-0.086 -0.368,-0.056"
       id="polyline25193"
       inkscape:connector-curvature="0" />
    <path
       transform="matrix(0.57871264,0,0,0.57600705,-29.773864,907.63484)"
       style="fill:none;stroke:#000000;stroke-width:1.71989727;stroke-linecap:square;stroke-miterlimit:10;stroke-opacity:1"
       d="m 340.315,212.473 -0.51,0.311 -0.51,0.256 -0.509,0.198 -0.085,0 -0.057,0.029 -0.113,0.056 -0.227,0.114 -0.511,0.114 -0.509,0.085 -0.51,0.028 -0.51,0"
       id="polyline25195"
       inkscape:connector-curvature="0" />
    <path
       transform="matrix(0.57871264,0,0,0.57600705,-29.773864,907.63484)"
       style="fill:none;stroke:#000000;stroke-width:1.71989727;stroke-linecap:square;stroke-miterlimit:10;stroke-opacity:1"
       d="m 336.264,213.664 -0.028,0.028 -0.085,0.085 -0.198,0.114 -0.255,0.171 -0.397,0.141 -0.453,0.198 -0.538,0.228 -0.623,0.283 -0.793,0.228 -0.425,0.113 -0.453,0.113 -0.51,0.085 -0.509,0.113 -1.078,0.228 -0.623,0.057 -0.623,0.085 -1.359,0.17 -0.736,0.057 -0.737,0.085 -0.764,0.057 -0.793,0.085"
       id="polyline25197"
       inkscape:connector-curvature="0" />
    <path
       transform="matrix(0.57871264,0,0,0.57600705,-29.773864,907.63484)"
       style="fill:none;stroke:#000000;stroke-width:1.71989727;stroke-linecap:square;stroke-miterlimit:10;stroke-opacity:1"
       d="m 349.01,209.606 -0.963,0.625 -0.509,0.284 -0.482,0.284 -1.019,0.482 -0.284,0.085 -0.254,0.113 -0.511,0.227 -1.133,0.313 -1.133,0.226 -1.189,0.143 -0.623,0.028 -0.595,0.057"
       id="polyline25199"
       inkscape:connector-curvature="0" />
    <path
       transform="matrix(0.57871264,0,0,0.57600705,-29.773864,907.63484)"
       style="fill:none;stroke:#000000;stroke-width:1.71989727;stroke-linecap:square;stroke-miterlimit:10;stroke-opacity:1"
       d="m 340.315,212.473 -0.821,-1.163 -0.708,-1.136 -0.681,-1.163 -0.595,-1.163 -0.594,-1.22 -0.51,-1.191 -0.482,-1.249 -0.368,-1.22 -0.368,-1.305 -0.312,-1.277 -0.254,-1.305 -0.199,-1.305 -0.17,-1.362 -0.085,-1.333 -0.028,-1.362 0.028,-1.362"
       id="polyline25201"
       inkscape:connector-curvature="0" />
    <path
       transform="matrix(0.57871264,0,0,0.57600705,-29.773864,907.63484)"
       style="fill:none;stroke:#000000;stroke-width:1.71989727;stroke-linecap:square;stroke-miterlimit:10;stroke-opacity:1"
       d="m 349.01,209.606 -0.821,-1.134 -0.708,-1.078 -0.708,-1.107 -0.595,-1.078 -0.595,-1.135 -0.539,-1.078 -0.934,-2.156 -0.765,-2.213 -0.311,-1.135 -0.255,-1.078 -0.255,-1.135 -0.142,-1.078 -0.141,-1.078 -0.029,-1.078"
       id="polyline25203"
       inkscape:connector-curvature="0" />
    <path
       transform="matrix(0.57871264,0,0,0.57600705,-29.773864,907.63484)"
       style="fill:none;stroke:#000000;stroke-width:1.71989727;stroke-linecap:square;stroke-miterlimit:10;stroke-opacity:1"
       d="m 336.264,213.664 -0.68,-1.276 -0.594,-1.249 -1.076,-2.553 -0.51,-1.306 -0.425,-1.276 -0.396,-1.306 -0.312,-1.276 -0.34,-1.333 -0.255,-1.306 -0.226,-1.333 -0.17,-1.305 -0.17,-1.362 -0.085,-1.334 -0.057,-1.361 0,-1.334"
       id="polyline25205"
       inkscape:connector-curvature="0" />
    <path
       transform="matrix(0.57871264,0,0,0.57600705,-29.773864,907.63484)"
       style="fill:none;stroke:#000000;stroke-width:1.71989727;stroke-linecap:square;stroke-miterlimit:10;stroke-opacity:1"
       d="m 324.284,216.388 -0.568,-1.476 -0.481,-1.446 -0.482,-1.476 -0.396,-1.447 -0.397,-1.504 -0.311,-1.475 -0.538,-3.007 -0.425,-3.064 -0.142,-1.56 -0.056,-1.533 -0.085,-1.588 0,-1.561 0.028,-1.589 0.113,-1.56"
       id="polyline25207"
       inkscape:connector-curvature="0" />
    <path
       transform="matrix(0.57871264,0,0,0.57600705,-29.773864,907.63484)"
       style="fill:none;stroke:#000000;stroke-width:1.71989727;stroke-linecap:square;stroke-miterlimit:10;stroke-opacity:1"
       d="m 319.836,217.381 -0.538,-1.532 -0.481,-1.504 -0.425,-1.532 -0.368,-1.503 -0.368,-1.561 -0.255,-1.532 -0.255,-1.589 -0.17,-1.561 -0.17,-1.617 -0.085,-1.589 -0.085,-1.645 0.029,-1.589 0.028,-1.646 0.113,-1.617 0.142,-1.674 0.198,-1.645"
       id="polyline25209"
       inkscape:connector-curvature="0" />
    <path
       transform="matrix(0.57871264,0,0,0.57600705,-29.773864,907.63484)"
       style="fill:none;stroke:#000000;stroke-width:1.71989727;stroke-linecap:square;stroke-miterlimit:10;stroke-opacity:1"
       d="m 350.171,191.96 0.51,-0.028 0.482,0 0.368,0 0.368,0.028 0.255,0 0.226,0.028 0.143,0.057 0.084,0.057"
       id="polyline25211"
       inkscape:connector-curvature="0" />
    <path
       transform="matrix(0.57871264,0,0,0.57600705,-29.773864,907.63484)"
       style="fill:none;stroke:#000000;stroke-width:1.71989727;stroke-linecap:square;stroke-miterlimit:10;stroke-opacity:1"
       d="m 352.948,208.217 -0.17,0.141 -0.142,0.17 -0.369,0.285 -0.425,0.226 -0.226,0.086 -0.199,0.113 -0.283,0.057 -0.085,0 -0.056,0.028 -0.114,0.057 -0.566,0.113 -0.651,0.057 -0.652,0.056"
       id="polyline25213"
       inkscape:connector-curvature="0" />
    <path
       transform="matrix(0.57871264,0,0,0.57600705,-29.773864,907.63484)"
       style="fill:none;stroke:#000000;stroke-width:1.71989727;stroke-linecap:square;stroke-miterlimit:10;stroke-opacity:1"
       d="m 352.948,208.217 -0.907,-0.993 -0.822,-0.965 -0.793,-0.993 -0.708,-0.964 -0.708,-1.022 -0.594,-0.965 -1.048,-1.986 -0.482,-1.05 -0.425,-1.02 -0.651,-2.043 -0.255,-1.078 -0.198,-1.022 -0.143,-1.078 -0.085,-1.021"
       id="polyline25215"
       inkscape:connector-curvature="0" />
    <path
       transform="matrix(0.57871264,0,0,0.57600705,-29.773864,907.63484)"
       style="fill:none;stroke:#000000;stroke-width:1.71989727;stroke-linecap:square;stroke-miterlimit:10;stroke-opacity:1"
       d="m 359.263,205.72 -1.897,-1.646 -0.878,-0.85 -0.765,-0.795 -0.765,-0.851 -0.708,-0.823 -1.217,-1.702 -1.049,-1.759 -0.821,-1.759 -0.369,-0.908 -0.254,-0.88 -0.227,-0.907 -0.142,-0.88"
       id="polyline25217"
       inkscape:connector-curvature="0" />
    <path
       transform="matrix(0.57871264,0,0,0.57600705,-29.773864,907.63484)"
       style="fill:none;stroke:#000000;stroke-width:1.71989727;stroke-linecap:square;stroke-miterlimit:10;stroke-opacity:1"
       d="m 120.01,205.521 -0.85,-0.056 -0.822,-0.057 -0.453,-0.056 -0.226,-0.029 -0.199,0 -0.877,-0.114 -0.936,-0.17 -0.906,-0.17 -0.963,-0.199 -0.963,-0.198 -0.765,-0.426 -0.708,-0.426 -0.198,-0.085 -0.085,-0.085 -2.407,-1.504 -1.162,-0.794 -1.104,-0.766 -2.181,-1.674 -2.068,-1.731 -2.011,-1.843 -1.897,-1.93 -0.936,-1.021 -0.877,-1.021 -0.878,-1.05 -0.822,-1.05 -0.85,-1.106 -0.764,-1.022 -0.737,-0.993 -0.679,-0.936 -0.68,-0.937 -0.595,-0.879 -0.567,-0.851 -0.51,-0.766 -0.509,-0.795 -0.425,-0.709 -0.425,-0.68 -0.34,-0.624 -0.34,-0.624 -0.254,-0.568 -0.256,-0.539 -0.17,-0.454 -0.368,-0.937 -0.255,-0.822 -0.198,-0.766 -0.113,-0.709 -0.085,-0.653 0.028,-0.596 0.085,-0.539 0.17,-0.426 0.142,-0.425 0.141,-0.34 0.113,-0.313 0.114,-0.255 0.056,-0.255 0.057,-0.142 0,-0.142 0.028,-0.029"
       id="polyline25227"
       inkscape:connector-curvature="0" />
    <path
       transform="matrix(0.57871264,0,0,0.57600705,-29.773864,907.63484)"
       style="fill:none;stroke:#000000;stroke-width:1.71989727;stroke-linecap:square;stroke-miterlimit:10;stroke-opacity:1"
       d="m 109.445,159.815 0.651,1.248 0.623,1.306 0.51,1.248 0.481,1.305 0.34,1.248 0.312,1.306 0.199,1.248 0.141,1.305 0.028,1.248 -0.028,0.624 0,0.653 -0.113,1.248 -0.17,1.305 -0.284,1.249 -0.17,0.623 -0.17,0.654 -0.453,1.248 -0.481,1.305 -0.991,-0.511 -0.878,-0.511 -0.822,-0.567 -0.765,-0.539 -0.708,-0.596 -0.651,-0.596 -0.595,-0.652 -0.482,-0.624 -0.481,-0.681 -0.368,-0.681 -0.199,-0.369 -0.141,-0.34 -0.255,-0.709 -0.255,-0.767 -0.142,-0.766 -0.085,-0.794 -0.028,-0.795 -0.028,-0.851 0.056,-0.794 0.085,-0.794 0.199,-0.738 0.198,-0.738 0.283,-0.681 0.312,-0.652 0.424,-0.596 0.397,-0.624 0.482,-0.568 0.538,-0.567 0.595,-0.511 0.623,-0.511 0.708,-0.453 0.737,-0.426 0.821,-0.369"
       id="polyline25229"
       inkscape:connector-curvature="0" />
    <path
       transform="matrix(0.57871264,0,0,0.57600705,-29.773864,907.63484)"
       style="fill:none;stroke:#000000;stroke-width:1.71989727;stroke-linecap:square;stroke-miterlimit:10;stroke-opacity:1"
       d="m 92.62,160.269 0.227,0 0.113,0 0.057,0 0.085,0.029 0.453,0.028 0.028,-0.028 0.057,0 0.113,0 0.226,0 0.397,-0.029 0.312,-0.113 0.312,-0.114 0.254,-0.17 0.227,-0.17 0.057,-0.142 0.085,-0.114 0.056,-0.141 0.085,-0.114 0.028,-0.17 0.057,-0.142 0.057,-0.34 0,-0.397 -0.029,-0.227 0,-0.199 -0.085,-0.454 -0.056,-0.256 -0.028,-0.226"
       id="polyline25231"
       inkscape:connector-curvature="0" />
    <path
       transform="matrix(0.57871264,0,0,0.57600705,-29.773864,907.63484)"
       style="fill:none;stroke:#000000;stroke-width:1.71989727;stroke-linecap:square;stroke-miterlimit:10;stroke-opacity:1"
       d="m 95.708,156.78 0.566,-0.398 0.623,-0.34 1.36,-0.653 1.444,-0.596 0.765,-0.283 0.821,-0.227 1.643,-0.482 1.813,-0.369 1.869,-0.312 2.04,-0.256 16.484,0"
       id="polyline25233"
       inkscape:connector-curvature="0" />
    <path
       transform="matrix(0.57871264,0,0,0.57600705,-29.773864,907.63484)"
       style="fill:none;stroke:#000000;stroke-width:1.71989727;stroke-linecap:square;stroke-miterlimit:10;stroke-opacity:1"
       d="m 86.53,169.234 0.397,0.029 0.368,0 0.34,-0.029 0.34,-0.056 0.283,-0.114 0.114,-0.085 0.141,-0.057 0.227,-0.17 0.085,-0.113 0.113,-0.085 0.142,-0.284 0.113,-0.284 0.085,-0.34 0.056,-0.341 0,-0.425 0,-0.426 -0.056,-0.482 -0.057,-0.482"
       id="polyline25235"
       inkscape:connector-curvature="0" />
    <path
       transform="matrix(0.57871264,0,0,0.57600705,-29.773864,907.63484)"
       style="fill:none;stroke:#000000;stroke-width:1.71989727;stroke-linecap:square;stroke-miterlimit:10;stroke-opacity:1"
       d="m 92.62,160.269 -0.51,0.426 -0.453,0.539 -0.453,0.539 -0.425,0.652 -0.425,0.653 -0.396,0.766 -0.397,0.766 -0.34,0.88"
       id="polyline25237"
       inkscape:connector-curvature="0" />
    <path
       transform="matrix(0.57871264,0,0,0.57600705,-29.773864,907.63484)"
       style="fill:none;stroke:#000000;stroke-width:1.71989727;stroke-linecap:square;stroke-miterlimit:10;stroke-opacity:1"
       d="m 131.424,193.918 -0.085,0.681 -0.056,0.339 -0.029,0.171 0,0.199 -0.113,0.652 -0.057,0.312 -0.028,0.341 -0.17,0.596 -0.141,0.624 -0.17,0.567 -0.17,0.596 -0.256,0.511 -0.226,0.511 -0.142,0.226 -0.113,0.256 -0.142,0.227 -0.113,0.255 -0.17,0.199 -0.141,0.226 -0.284,0.426 -0.339,0.397 -0.312,0.398 -0.396,0.311 -0.397,0.341 -0.425,0.283 -0.397,0.313 -0.453,0.227 -0.453,0.255 -0.142,0.029 -0.113,0.056 -0.226,0.114 -0.482,0.227 -0.283,0.057 -0.142,0.028 -0.113,0.057 -0.538,0.17 -0.566,0.113 -0.567,0.114 -0.623,0.057 -0.17,0 -0.142,0.028 -0.283,0.057 -0.623,0.028 -0.623,0.028"
       id="polyline25241"
       inkscape:connector-curvature="0" />
    <path
       transform="matrix(0.57871264,0,0,0.57600705,-29.773864,907.63484)"
       style="fill:none;stroke:#000000;stroke-width:1.71989727;stroke-linecap:square;stroke-miterlimit:10;stroke-opacity:1"
       d="m 102.449,221.892 0.198,-0.568 0.255,-0.539 0.651,-0.681 0.737,-0.624 0.793,-0.681 0.878,-0.624 0.935,-0.681 1.019,-0.681 1.105,-0.681 1.189,-0.681 1.218,-0.737 0.623,-0.369 0.68,-0.34 1.388,-0.738 0.708,-0.37 0.765,-0.339 1.501,-0.739 1.615,-0.737 1.671,-0.766 1.756,-0.738 0.17,0"
       id="polyline25245"
       inkscape:connector-curvature="0" />
    <path
       transform="matrix(0.57871264,0,0,0.57600705,-29.773864,907.63484)"
       style="fill:none;stroke:#000000;stroke-width:1.71989727;stroke-linecap:square;stroke-miterlimit:10;stroke-opacity:1"
       d="m 95.254,180.753 0.595,1.135 0.651,1.192 0.708,1.163 0.794,1.192 0.821,1.134 0.935,1.163 0.991,1.135 1.048,1.163 1.105,1.107 1.161,1.135 1.218,1.135 1.303,1.135 1.331,1.078 1.445,1.135 1.473,1.078 1.558,1.135 -1.332,-1.277 -1.246,-1.249 -1.218,-1.248 -1.105,-1.248 -1.104,-1.277 -0.991,-1.248 -0.936,-1.276 -0.877,-1.249 -0.878,-1.305 -0.765,-1.277 -0.709,-1.305 -0.651,-1.277 -0.595,-1.305 -0.538,-1.305 -0.481,-1.305 -0.227,-0.653 -0.17,-0.624 -0.453,-0.198 -0.397,-0.113 -0.396,-0.085 -0.34,-0.029 -0.34,-0.029 -0.255,0.058 -0.255,0.056 -0.198,0.142 -0.226,0.141 -0.142,0.2 -0.142,0.226 -0.085,0.313 -0.085,0.283 -0.028,0.369 -0.028,0.397 0.056,0.482"
       id="polyline25247"
       inkscape:connector-curvature="0" />
    <path
       transform="matrix(0.57871264,0,0,0.57600705,-29.773864,907.63484)"
       style="fill:none;stroke:#000000;stroke-width:1.71989727;stroke-linecap:square;stroke-miterlimit:10;stroke-opacity:1"
       d="m 107.547,226.573 -0.368,0.085 -0.312,0.113 -0.708,-0.169 -0.623,-0.143 -0.595,-0.198 -0.482,-0.17 -0.481,-0.256 -0.396,-0.227 -0.369,-0.284 -0.255,-0.283 -0.283,-0.341 -0.198,-0.34 -0.142,-0.369 -0.085,-0.369 -0.056,-0.426 0.028,-0.396 0.085,-0.454 0.142,-0.454"
       id="polyline25251"
       inkscape:connector-curvature="0" />
    <path
       transform="matrix(0.57871264,0,0,0.57600705,-29.773864,907.63484)"
       style="fill:none;stroke:#000000;stroke-width:1.71989727;stroke-linecap:square;stroke-miterlimit:10;stroke-opacity:1"
       d="m 307.26,191.96 0.482,-0.028 0.453,0 0.425,0 0.396,0 0.341,0 0.311,0 0.284,0 0.255,0.028 3.426,0.028 3.513,0.057"
       id="polyline25255"
       inkscape:connector-curvature="0" />
    <path
       transform="matrix(0.57871264,0,0,0.57600705,-29.773864,907.63484)"
       style="fill:none;stroke:#000000;stroke-width:1.71989727;stroke-linecap:square;stroke-miterlimit:10;stroke-opacity:1"
       d="m 304.088,191.818 0.85,0 0.906,0.029 0.283,0 0.255,0 0.227,0 0.198,0.028 0.283,0.028 0.17,0.057"
       id="polyline25257"
       inkscape:connector-curvature="0" />
    <path
       transform="matrix(0.57871264,0,0,0.57600705,-29.773864,907.63484)"
       style="fill:none;stroke:#000000;stroke-width:1.71989727;stroke-linecap:square;stroke-miterlimit:10;stroke-opacity:1"
       d="m 293.948,191.563 5.042,0.113 5.098,0.142"
       id="polyline25259"
       inkscape:connector-curvature="0" />
    <path
       transform="matrix(0.57871264,0,0,0.57600705,-29.773864,907.63484)"
       style="fill:none;stroke:#000000;stroke-width:1.71989727;stroke-linecap:square;stroke-miterlimit:10;stroke-opacity:1"
       d="m 278.058,190.854 1.359,0.056 1.333,0.057 1.217,0.056 0.283,0 0.142,0 0.17,0.029 0.595,0.056 0.538,0 0.255,0 0.283,0.029 1.019,0.057 0.935,0.057 0.878,0.057"
       id="polyline25261"
       inkscape:connector-curvature="0" />
    <path
       transform="matrix(0.57871264,0,0,0.57600705,-29.773864,907.63484)"
       style="fill:none;stroke:#000000;stroke-width:1.71989727;stroke-linecap:square;stroke-miterlimit:10;stroke-opacity:1"
       d="m 285.904,219.991 -0.963,0.085 -0.906,0.113 -1.728,0.142 -0.849,0.028 -0.793,0.029 -0.794,-0.029 -0.737,0 -0.764,-0.085 -0.708,-0.056 -0.68,-0.114 -0.623,-0.084 -0.651,-0.171 -0.595,-0.142 -0.567,-0.198 -0.509,-0.171"
       id="polyline25263"
       inkscape:connector-curvature="0" />
    <path
       transform="matrix(0.57871264,0,0,0.57600705,-29.773864,907.63484)"
       style="fill:none;stroke:#000000;stroke-width:1.71989727;stroke-linecap:square;stroke-miterlimit:10;stroke-opacity:1"
       d="m 310.008,218.771 -0.453,0.397 -0.255,0.17 -0.226,0.171 -0.511,0.226 -0.51,0.142 -0.623,0 -0.311,-0.057 -0.284,-0.056 -0.623,-0.227 -0.623,-0.312"
       id="polyline25265"
       inkscape:connector-curvature="0" />
    <path
       transform="matrix(0.57871264,0,0,0.57600705,-29.773864,907.63484)"
       style="fill:none;stroke:#000000;stroke-width:1.71989727;stroke-linecap:square;stroke-miterlimit:10;stroke-opacity:1"
       d="m 287.065,191.308 1.105,0 1.077,0.056 0.962,0 0.907,0.057 0.793,0 0.764,0.057 0.312,0 0.34,0.028 0.623,0.057"
       id="polyline25269"
       inkscape:connector-curvature="0" />
    <path
       transform="matrix(0.57871264,0,0,0.57600705,-29.773864,907.63484)"
       style="fill:none;stroke:#000000;stroke-width:1.71989727;stroke-linecap:square;stroke-miterlimit:10;stroke-opacity:1"
       d="m 305.589,219.225 -0.538,-1.646 -0.481,-1.645 -0.425,-1.674 -0.312,-1.646 -0.311,-1.702 -0.142,-0.851 -0.085,-0.823 -0.198,-1.702 -0.085,-1.703 -0.085,-1.759 -0.028,-1.702 0.028,-1.759 0.142,-1.73 0.141,-1.76 0.255,-1.759 0.255,-1.787 0.368,-1.759"
       id="polyline25279"
       inkscape:connector-curvature="0" />
    <path
       style="fill:none;stroke:#000000;stroke-width:0.99299687;stroke-linecap:square;stroke-miterlimit:10;stroke-opacity:1"
       d="m 127.15853,1017.3388 -1.47513,1.0133"
       id="line25283"
       inkscape:connector-curvature="0" />
    <path
       transform="matrix(0.57871264,0,0,0.57600705,-29.773864,907.63484)"
       style="fill:none;stroke:#000000;stroke-width:1.71989727;stroke-linecap:square;stroke-miterlimit:10;stroke-opacity:1"
       d="m 250.98,204.074 -0.623,1.532 -0.453,1.589 -0.34,1.533 -0.17,1.588 -0.057,1.533 0.114,1.588 0.255,1.56 0.397,1.589"
       id="polyline25287"
       inkscape:connector-curvature="0" />
    <path
       transform="matrix(0.57871264,0,0,0.57600705,-29.773864,907.63484)"
       style="fill:none;stroke:#000000;stroke-width:1.71989727;stroke-linecap:square;stroke-miterlimit:10;stroke-opacity:1"
       d="m 250.103,216.586 0.085,0 0.254,0.199 0.312,0.227 0.736,0.397 0.793,0.34 0.935,0.313 0.991,0.254 0.539,0.086 0.594,0.114 0.567,0.056 0.623,0.085 1.36,0.114 0.878,0.028 0.962,0.028 0.964,0 1.048,0 1.048,-0.056 1.132,-0.029 1.161,-0.085 1.248,-0.085"
       id="polyline25289"
       inkscape:connector-curvature="0" />
    <path
       transform="matrix(0.57871264,0,0,0.57600705,-29.773864,907.63484)"
       style="fill:none;stroke:#000000;stroke-width:1.71989727;stroke-linecap:square;stroke-miterlimit:10;stroke-opacity:1"
       d="m 268.626,192.215 -15.436,10.498 -1.162,0.681 -1.048,0.68"
       id="polyline25293"
       inkscape:connector-curvature="0" />
    <path
       transform="matrix(0.57871264,0,0,0.57600705,-29.773864,907.63484)"
       style="fill:none;stroke:#000000;stroke-width:1.71989727;stroke-linecap:square;stroke-miterlimit:10;stroke-opacity:1"
       d="m 234.892,226.771 0.794,-0.51 0.169,-0.142 0.199,-0.113 0.34,-0.228 0.283,-0.283 0.255,-0.227 0.226,-0.255 0.198,-0.228 0.142,-0.283 0.113,-0.284 0.085,-0.283 0,-0.085 0.029,-0.057 0.056,-0.114 0,-0.568 -0.028,-0.283 -0.057,-0.256"
       id="polyline25299"
       inkscape:connector-curvature="0" />
    <path
       style="fill:none;stroke:#000000;stroke-width:0.99299687;stroke-linecap:square;stroke-miterlimit:10;stroke-opacity:1"
       d="m 127.15853,1017.3388 3.9833,0.2293"
       id="line25303"
       inkscape:connector-curvature="0" />
    <path
       transform="matrix(0.57871264,0,0,0.57600705,-29.773864,907.63484)"
       style="fill:none;stroke:#000000;stroke-width:1.71989727;stroke-linecap:square;stroke-miterlimit:10;stroke-opacity:1"
       d="m 171.418,176.497 0.85,-0.425 0.878,-0.341 0.85,-0.312 0.878,-0.198 1.699,-0.312 0.85,-0.085 0.878,0 1.642,0.085 0.822,0.142 0.85,0.198 1.642,0.539 0.793,0.369 0.85,0.426 1.87,0.709 1.954,0.709 1.954,0.682 2.04,0.68 2.039,0.624 2.096,0.653 2.124,0.624 2.21,0.624 2.181,0.539 2.265,0.568 2.295,0.539 2.379,0.538 2.351,0.483 2.436,0.51 2.464,0.455 2.521,0.482 1.331,0.113 1.473,0.171 1.586,0.17 1.699,0.198"
       id="polyline25307"
       inkscape:connector-curvature="0" />
    <path
       transform="matrix(0.57871264,0,0,0.57600705,-29.773864,907.63484)"
       style="fill:none;stroke:#000000;stroke-width:1.71989727;stroke-linecap:square;stroke-miterlimit:10;stroke-opacity:1"
       d="m 173.996,180.498 0.453,-0.681 0.453,-0.567 0.481,-0.511 0.51,-0.426 0.482,-0.369 0.509,-0.283 0.539,-0.227 0.566,-0.114 0.51,-0.085 0.566,0 0.567,0.085 0.595,0.17 0.566,0.228 0.624,0.311 0.623,0.369 0.651,0.483 0.708,0.596 0.736,0.737 0.765,0.823 0.793,0.937 0.793,0.992 0.793,1.136 0.822,1.219 0.85,1.333 1.132,1.93 1.218,1.929 1.275,1.873 1.331,1.9 1.331,1.817 1.445,1.815 1.501,1.787 1.558,1.788 1.558,1.702 1.643,1.731 1.671,1.674 1.784,1.673 1.785,1.618 1.869,1.617 1.898,1.56 2.011,1.561 1.274,0.935 1.331,1.022 16.797,0"
       id="polyline25309"
       inkscape:connector-curvature="0" />
    <path
       transform="matrix(0.57871264,0,0,0.57600705,-29.773864,907.63484)"
       style="fill:none;stroke:#000000;stroke-width:1.71989727;stroke-linecap:square;stroke-miterlimit:10;stroke-opacity:1"
       d="m 176.063,190.314 0.255,-0.624 0.198,-0.624 0.142,-0.624 0.141,-0.625 0.029,-0.624 0.028,-0.624 -0.057,-0.624 -0.085,-0.567 -0.17,-0.624 -0.198,-0.624 -0.255,-0.625 -0.311,-0.567 -0.368,-0.625 -0.425,-0.624 -0.482,-0.624 -0.509,-0.567"
       id="polyline25311"
       inkscape:connector-curvature="0" />
    <path
       transform="matrix(0.57871264,0,0,0.57600705,-29.773864,907.63484)"
       style="fill:none;stroke:#000000;stroke-width:1.71989727;stroke-linecap:square;stroke-miterlimit:10;stroke-opacity:1"
       d="m 159.267,204.954 0.68,-0.454 0.651,-0.454 0.623,-0.511 0.283,-0.283 0.057,-0.085 0.085,-0.057 0.17,-0.114 0.113,-0.17 0.057,-0.085 0.085,-0.056 0.283,-0.285 0.51,-0.624 0.482,-0.68 0.453,-0.681 0.396,-0.767 0.17,-0.397 0.029,-0.113 0.056,-0.085 0.113,-0.17 0.34,-0.823 0.312,-0.851 0.255,-0.908 0.113,-0.483 0.142,-0.454 0.198,-0.965 0.085,-0.509 0.113,-0.483 0.198,-1.873 0.284,-1.702 0.312,-1.589 0.396,-1.389 0.368,-1.363 0.425,-1.163 0.453,-1.021 0.51,-0.851 0.481,-0.767 0.567,-0.595 0.567,-0.454 0.623,-0.284 0.594,-0.199 0.652,-0.028 0.679,0.085 0.766,0.284"
       id="polyline25313"
       inkscape:connector-curvature="0" />
    <path
       transform="matrix(0.57871264,0,0,0.57600705,-29.773864,907.63484)"
       style="fill:none;stroke:#000000;stroke-width:1.71989727;stroke-linecap:square;stroke-miterlimit:10;stroke-opacity:1"
       d="m 159.267,204.954 -0.708,-0.198 -0.652,-0.114 -0.623,-0.114 -0.566,-0.056 -0.595,-0.057 -0.539,0.028 -0.509,0.029 -0.453,0.085 -0.482,0.056 -0.425,0.143 -0.396,0.141 -0.34,0.199 -0.368,0.198 -0.283,0.256 -0.284,0.283 -0.227,0.341 -0.254,0.312 -0.199,0.368 -0.17,0.37 -0.113,0.425 -0.142,0.426 -0.085,0.483 -0.084,1.048"
       id="polyline25315"
       inkscape:connector-curvature="0" />
    <path
       transform="matrix(0.57871264,0,0,0.57600705,-29.773864,907.63484)"
       style="fill:none;stroke:#000000;stroke-width:1.71989727;stroke-linecap:square;stroke-miterlimit:10;stroke-opacity:1"
       d="m 155.925,213.466 -0.397,0.34 -0.227,0.141 -0.226,0.171"
       id="polyline25317"
       inkscape:connector-curvature="0" />
    <path
       style="fill:none;stroke:#000000;stroke-width:0.99299687;stroke-linecap:square;stroke-miterlimit:10;stroke-opacity:1"
       d="m 62.772705,1030.625 -2.310799,-0.032"
       id="line25319"
       inkscape:connector-curvature="0" />
    <path
       transform="matrix(0.57871264,0,0,0.57600705,-29.773864,907.63484)"
       style="fill:none;stroke:#000000;stroke-width:1.71989727;stroke-linecap:square;stroke-miterlimit:10;stroke-opacity:1"
       d="m 155.075,214.118 -0.255,0.142 0,-0.029"
       id="polyline25321"
       inkscape:connector-curvature="0" />
    <path
       style="fill:none;stroke:#000000;stroke-width:0.99299687;stroke-linecap:square;stroke-miterlimit:10;stroke-opacity:1"
       d="m 59.969997,1030.9683 -0.147567,0.065"
       id="line25323"
       inkscape:connector-curvature="0" />
    <path
       transform="matrix(0.57871264,0,0,0.57600705,-29.773864,907.63484)"
       style="fill:none;stroke:#000000;stroke-width:1.71989727;stroke-linecap:square;stroke-miterlimit:10;stroke-opacity:1"
       d="m 150.77,209.606 0.368,0.115 0.17,0.056 0.085,0.029 0.113,0.056 0.708,0.284 0.652,0.284 0.594,0.283 0.482,0.227 0.481,0.284 0.425,0.227 0.368,0.283 0.255,0.228 0.256,0.226 0.169,0.228 0.142,0.227 0.028,0.17 0.029,0.227 -0.057,0.085 -0.028,0.113 -0.085,0.228"
       id="polyline25325"
       inkscape:connector-curvature="0" />
    <path
       transform="matrix(0.57871264,0,0,0.57600705,-29.773864,907.63484)"
       style="fill:none;stroke:#000000;stroke-width:1.71989727;stroke-linecap:square;stroke-miterlimit:10;stroke-opacity:1"
       d="m 159.918,213.522 -0.821,-1.334 -0.595,-1.219 -0.255,-0.596 -0.142,-0.567 -0.141,-0.568 -0.028,-0.539 -0.029,-0.539 0.029,-0.511 0.085,-0.51 0.169,-0.454 0.17,-0.483 0.255,-0.426 0.652,-0.822"
       id="polyline25327"
       inkscape:connector-curvature="0" />
    <path
       transform="matrix(0.57871264,0,0,0.57600705,-29.773864,907.63484)"
       style="fill:none;stroke:#000000;stroke-width:1.71989727;stroke-linecap:square;stroke-miterlimit:10;stroke-opacity:1"
       d="m 166.518,215.225 -1.416,-0.483 -0.652,-0.227 -0.566,-0.17 -1.077,-0.312 -0.481,-0.142 -0.397,-0.085 -0.764,-0.199 -0.312,-0.085 -0.255,-0.028 -0.425,-0.028 -0.17,0 -0.085,0.056"
       id="polyline25329"
       inkscape:connector-curvature="0" />
    <path
       transform="matrix(0.57871264,0,0,0.57600705,-29.773864,907.63484)"
       style="fill:none;stroke:#000000;stroke-width:1.71989727;stroke-linecap:square;stroke-miterlimit:10;stroke-opacity:1"
       d="m 209.032,220.87 -2.209,-1.418 -2.124,-1.39 -2.068,-1.419 -1.954,-1.39 -0.991,-0.738 -0.936,-0.709 -1.84,-1.418 -1.757,-1.476 -1.671,-1.447 -0.849,-0.766 -0.794,-0.738 -1.529,-1.475 -1.473,-1.532 -1.388,-1.504 -1.331,-1.56 -1.246,-1.533 -1.19,-1.588 -0.566,-0.794 -0.51,-0.766 -0.85,-1.561 -0.396,-0.71 -0.397,-0.652 -0.85,-1.163 -0.793,-0.936 -0.849,-0.766 -0.397,-0.313 -0.396,-0.254 -0.426,-0.227 -0.396,-0.143 -0.397,-0.141 -0.396,-0.029"
       id="polyline25333"
       inkscape:connector-curvature="0" />
  </g>
</svg>
