<?xml version="1.0" encoding="UTF-8" standalone="no"?>
<!-- Created with Inkscape (http://www.inkscape.org/) -->

<svg
   xmlns:dc="http://purl.org/dc/elements/1.1/"
   xmlns:cc="http://creativecommons.org/ns#"
   xmlns:rdf="http://www.w3.org/1999/02/22-rdf-syntax-ns#"
   xmlns:svg="http://www.w3.org/2000/svg"
   xmlns="http://www.w3.org/2000/svg"
   xmlns:xlink="http://www.w3.org/1999/xlink"
   xmlns:sodipodi="http://sodipodi.sourceforge.net/DTD/sodipodi-0.dtd"
   xmlns:inkscape="http://www.inkscape.org/namespaces/inkscape"
   width="5.7262907cm"
   height="6.8461862cm"
   id="svg2"
   version="1.1"
   inkscape:version="0.91 r13725"
   sodipodi:docname="Blue-tailed_Bee-eater.svg">
  <defs
     id="defs4">
    <linearGradient
       inkscape:collect="always"
       id="linearGradient4371">
      <stop
         style="stop-color:#4b8401;stop-opacity:1;"
         offset="0"
         id="stop4373" />
      <stop
         style="stop-color:#bdc84b;stop-opacity:1"
         offset="1"
         id="stop4375" />
    </linearGradient>
    <linearGradient
       inkscape:collect="always"
       id="linearGradient4107">
      <stop
         style="stop-color:#7c4b00;stop-opacity:1;"
         offset="0"
         id="stop4109" />
      <stop
         style="stop-color:#52a146;stop-opacity:1"
         offset="1"
         id="stop4111" />
    </linearGradient>
    <linearGradient
       inkscape:collect="always"
       id="linearGradient3915">
      <stop
         style="stop-color:#7f7900;stop-opacity:1;"
         offset="0"
         id="stop3917" />
      <stop
         style="stop-color:#44a21e;stop-opacity:1"
         offset="1"
         id="stop3919" />
    </linearGradient>
    <linearGradient
       inkscape:collect="always"
       id="linearGradient3889">
      <stop
         style="stop-color:#886000;stop-opacity:1;"
         offset="0"
         id="stop3891" />
      <stop
         style="stop-color:#9c9707;stop-opacity:1"
         offset="1"
         id="stop3893" />
    </linearGradient>
    <linearGradient
       inkscape:collect="always"
       id="linearGradient3879">
      <stop
         style="stop-color:#e3b430;stop-opacity:1;"
         offset="0"
         id="stop3881" />
      <stop
         style="stop-color:#bdc84b;stop-opacity:1"
         offset="1"
         id="stop3883" />
    </linearGradient>
    <linearGradient
       inkscape:collect="always"
       id="linearGradient3869">
      <stop
         style="stop-color:#96b302;stop-opacity:1;"
         offset="0"
         id="stop3871" />
      <stop
         style="stop-color:#c3a918;stop-opacity:1"
         offset="1"
         id="stop3873" />
    </linearGradient>
    <linearGradient
       inkscape:collect="always"
       id="linearGradient3851">
      <stop
         style="stop-color:#c43301;stop-opacity:1;"
         offset="0"
         id="stop3853" />
      <stop
         style="stop-color:#ed9d44;stop-opacity:1"
         offset="1"
         id="stop3855" />
    </linearGradient>
    <linearGradient
       inkscape:collect="always"
       id="linearGradient3841">
      <stop
         style="stop-color:#ffdc74;stop-opacity:1;"
         offset="0"
         id="stop3843" />
      <stop
         style="stop-color:#e26f1c;stop-opacity:1"
         offset="1"
         id="stop3845" />
    </linearGradient>
    <linearGradient
       inkscape:collect="always"
       id="linearGradient3831">
      <stop
         style="stop-color:#fff4ec;stop-opacity:1;"
         offset="0"
         id="stop3833" />
      <stop
         style="stop-color:#f3ca5e;stop-opacity:1"
         offset="1"
         id="stop3835" />
    </linearGradient>
    <linearGradient
       inkscape:collect="always"
       id="linearGradient3821">
      <stop
         style="stop-color:#65dbdf;stop-opacity:1;"
         offset="0"
         id="stop3823" />
      <stop
         style="stop-color:#e0f9e4;stop-opacity:1"
         offset="1"
         id="stop3825" />
    </linearGradient>
    <linearGradient
       inkscape:collect="always"
       id="linearGradient3779">
      <stop
         style="stop-color:#756894;stop-opacity:1;"
         offset="0"
         id="stop3781" />
      <stop
         style="stop-color:#2e1c27;stop-opacity:1"
         offset="1"
         id="stop3783" />
    </linearGradient>
    <linearGradient
       inkscape:collect="always"
       xlink:href="#linearGradient3779"
       id="linearGradient3785"
       x1="256.96591"
       y1="321.43323"
       x2="256.96591"
       y2="331.09235"
       gradientUnits="userSpaceOnUse" />
    <linearGradient
       inkscape:collect="always"
       xlink:href="#linearGradient3821"
       id="linearGradient3827"
       x1="331.24121"
       y1="340.4184"
       x2="321.58209"
       y2="352.90863"
       gradientUnits="userSpaceOnUse" />
    <linearGradient
       inkscape:collect="always"
       xlink:href="#linearGradient3831"
       id="linearGradient3837"
       x1="319.41711"
       y1="344.74832"
       x2="316.41946"
       y2="365.8985"
       gradientUnits="userSpaceOnUse" />
    <linearGradient
       inkscape:collect="always"
       xlink:href="#linearGradient3841"
       id="linearGradient3847"
       x1="328.9097"
       y1="355.24014"
       x2="327.07782"
       y2="371.3942"
       gradientUnits="userSpaceOnUse" />
    <linearGradient
       inkscape:collect="always"
       xlink:href="#linearGradient3851"
       id="linearGradient3857"
       x1="325.24591"
       y1="389.04706"
       x2="327.74396"
       y2="359.73663"
       gradientUnits="userSpaceOnUse" />
    <linearGradient
       inkscape:collect="always"
       xlink:href="#linearGradient3869"
       id="linearGradient3875"
       x1="341.89957"
       y1="353.7413"
       x2="359.05283"
       y2="330.75928"
       gradientUnits="userSpaceOnUse" />
    <linearGradient
       inkscape:collect="always"
       xlink:href="#linearGradient3879"
       id="linearGradient3885"
       x1="338.20422"
       y1="382.54825"
       x2="346.21185"
       y2="457.44305"
       gradientUnits="userSpaceOnUse" />
    <linearGradient
       inkscape:collect="always"
       xlink:href="#linearGradient3889"
       id="linearGradient3895"
       x1="337.73615"
       y1="317.60287"
       x2="399.35468"
       y2="399.20581"
       gradientUnits="userSpaceOnUse" />
    <linearGradient
       inkscape:collect="always"
       xlink:href="#linearGradient3915"
       id="linearGradient3921"
       x1="391.90237"
       y1="420.70221"
       x2="449.83987"
       y2="499.83633"
       gradientUnits="userSpaceOnUse" />
    <linearGradient
       inkscape:collect="always"
       xlink:href="#linearGradient4107"
       id="linearGradient4113"
       x1="453.60818"
       y1="541.75861"
       x2="478.57312"
       y2="568.60767"
       gradientUnits="userSpaceOnUse" />
    <linearGradient
       inkscape:collect="always"
       xlink:href="#linearGradient4371"
       id="linearGradient4377"
       x1="422.33673"
       y1="533.1012"
       x2="400.35388"
       y2="507.45456"
       gradientUnits="userSpaceOnUse" />
  </defs>
  <sodipodi:namedview
     id="base"
     pagecolor="#ffffff"
     bordercolor="#666666"
     borderopacity="1.0"
     inkscape:pageopacity="0.0"
     inkscape:pageshadow="2"
     inkscape:zoom="3.496703"
     inkscape:cx="-12.979298"
     inkscape:cy="133.14944"
     inkscape:document-units="cm"
     inkscape:current-layer="layer1"
     showgrid="false"
     inkscape:window-width="1920"
     inkscape:window-height="1019"
     inkscape:window-x="0"
     inkscape:window-y="0"
     inkscape:window-maximized="1"
     showguides="true"
     inkscape:guide-bbox="true"
     fit-margin-top="0"
     fit-margin-left="0"
     fit-margin-right="0"
     fit-margin-bottom="0"
     units="cm" />
  <metadata
     id="metadata7">
    <rdf:RDF>
      <cc:Work
         rdf:about="">
        <dc:format>image/svg+xml</dc:format>
        <dc:type
           rdf:resource="http://purl.org/dc/dcmitype/StillImage" />
        <dc:title />
      </cc:Work>
    </rdf:RDF>
  </metadata>
  <g
     inkscape:label="Layer 1"
     inkscape:groupmode="layer"
     id="layer1"
     transform="translate(-752.97478,-463.25025)">
    <g
       id="g4179">
      <path
         sodipodi:nodetypes="cccccccccccccccccccccccccccccccccccccccccscccsscccccccccccccccccccccccccssccccccccccccccccccccccccccccccccccccccscccccccccccccccc"
         inkscape:connector-curvature="0"
         id="path4417"
         d="m 818.48422,463.75784 c -5.21585,-0.12394 -10.83352,1.25446 -16.37736,4.92509 l 0.13098,-0.20643 -0.24594,0.28467 c -0.63641,0.4251 -1.27266,0.88077 -1.9063,1.36771 l -0.017,-0.20549 -1.52183,1.96627 -0.931,0.54294 c -0.051,-0.0119 -0.11029,-0.0239 -0.16208,-0.0358 l -0.0368,-0.0622 -0.147,0.0217 c -9.60062,-2.1834 -31.4667,-4.76862 -44.04362,2.55068 0.23658,-0.0229 0.484,-0.0423 0.72181,-0.065 -0.0797,0.0225 -0.1608,0.0422 -0.24029,0.065 l 30.99073,2.50167 c 2.87535,0.78771 5.9807,1.75978 9.35337,2.94845 l 0.0716,4.11445 0.64266,-1.36677 0,2.7326 0.32133,-1.76832 0.40142,3.37546 0.24123,-2.41118 0.0801,4.98353 0.48246,-2.81272 0.32133,2.97391 0.16019,-2.08975 c 0,0 0.88458,4.98265 0.96493,4.66116 0.0803,-0.32149 0.0801,-3.53664 0.0801,-3.53664 l 1.20521,4.82235 0,-3.53569 2.0891,3.21426 -0.72369,-2.41117 -0.48152,-1.44689 0.19035,0.1904 -0.0302,0.21209 1.15245,1.79377 -0.0273,0.13479 c 1.70171,4.22006 2.78,8.41504 3.21423,12.94002 0,0 0.14383,0.11813 0.16207,0.13291 -0.0393,1.90965 -0.0174,4.01011 0.20166,5.46143 1.45561,9.64582 3.70123,19.25572 8.63628,27.96131 2.41353,4.45334 5.19952,8.78125 8.63534,12.50265 1.8296,1.98167 4.59056,4.51598 7.17758,6.79709 l -1.22689,1.26686 -7.71376,4.82235 c 0,0 -1.7492,0.12269 -2.57062,0.40154 -0.63557,0.21576 -1.28482,0.49808 -1.76778,0.96428 -0.60486,0.58388 -1.28625,2.17082 -1.28625,2.17082 l 0.0414,0.0179 c -1.11473,2.42458 -0.13909,4.59393 2.03917,5.45294 0.72854,1.30845 2.3118,2.14564 4.41095,2.08221 -0.7992,-0.63509 -1.50597,-1.13681 -2.02219,-1.6882 0.004,-1.3e-4 0.009,1.4e-4 0.0132,0 -0.0175,-0.0139 -0.0306,-0.0239 -0.0481,-0.0377 -1.99053,-3.15144 -0.22359,-5.55921 3.44038,-5.50574 0.32579,0.004 0.96399,0.16025 0.96399,0.16025 l 0.72275,1.44689 c 0,0 0.0504,-0.009 0.0707,-0.0123 l -0.1338,0.25167 c 0.65189,2.67227 -0.76939,3.42412 -2.73176,4.98354 4.08077,0.12331 6.51368,-3.53512 4.22438,-7.09025 -0.0208,-0.0749 -0.0394,-0.15239 -0.0631,-0.22245 -0.32524,-0.95907 -1.84787,-2.41117 -1.84787,-2.41117 l 7.23129,-3.69688 1.97509,-0.13479 c 1.73682,1.47468 2.96357,2.48375 2.96357,2.48375 0,0 0.008,-0.0854 0.008,-0.0943 l 5.53419,5.67068 6.4275,5.14378 0.17904,0.0377 -0.7416,0.76633 -7.71281,4.82234 c 0,0 -1.75014,0.1227 -2.57157,0.40155 -0.63557,0.21576 -1.28482,0.49807 -1.76778,0.96428 -0.60486,0.58388 -1.28531,2.16987 -1.28531,2.16987 l 0.0414,0.0169 c -1.11611,2.42534 -0.13966,4.5956 2.03916,5.45483 0.72855,1.30845 2.31086,2.14564 4.41001,2.08221 -0.79908,-0.63501 -1.50504,-1.1369 -2.02125,-1.6882 0.004,-1.2e-4 0.008,1.3e-4 0.0122,0 -0.0165,-0.0131 -0.0288,-0.0228 -0.0452,-0.0358 -1.30625,-2.21118 -1.10841,-3.41072 0.54465,-5.10607 0.84995,-0.47465 1.91956,-0.41476 2.8929,-0.40155 0.32579,0.004 0.96398,0.16025 0.96398,0.16025 l 0.7237,1.44689 c 0,0 0.0502,-0.009 0.0707,-0.0123 l -0.13381,0.25168 c 0.65189,2.67226 -0.76938,3.42411 -2.73176,4.98353 4.08036,0.12329 6.51249,-3.53452 4.22438,-7.08931 -0.0209,-0.0753 -0.0402,-0.15302 -0.0641,-0.22339 -0.32524,-0.95907 -1.84787,-2.41117 -1.84787,-2.41117 l 7.2313,-3.69689 1.90723,-0.13007 0.86128,0.19135 c 4.4023,2.70673 7.4804,6.75915 11.14471,10.30827 9.12569,8.73256 19.36712,16.21959 28.86204,24.55099 8.21226,8.74139 14.41987,19.16041 21.24817,28.98497 l 10.22692,17.73126 0.79529,-0.68245 8.97647,16.02705 8.97739,15.23054 2.38592,2.38761 9.77177,13.63942 -28.67733,-49.23674 -1.77532,-4.18515 -16.51776,-32.33969 c 0.69041,0.47958 1.38245,0.95768 2.08724,1.42333 1.6974,1.16866 2.89767,2.89205 1.81768,-0.11405 l -3.29523,-6.02416 c -4.33121,-6.31356 -9.91124,-12.12732 -12.95114,-18.95759 l 0.1112,-1.2744 c -3.52061,-8.04954 -5.77918,-14.81855 -10.79419,-22.61959 0,0 0.15245,-1.15768 0,-1.70516 -0.69919,-2.51085 -2.92549,-5.9662 -4.67199,-8.43628 0.24337,-1.14125 -0.78211,-3.15676 -0.78211,-3.15676 -4.13457,-9.60585 -8.21763,-19.22628 -12.90307,-28.57777 -2.25725,-5.86974 -4.51419,-9.36941 -6.77145,-14.20217 -4.00086,-8.20511 -11.40217,-19.04375 -15.41715,-29.25173 l 1.44645,0.88416 -1.68768,-3.45651 0.80379,0.32142 -3.05308,-4.09937 1.20521,0.48261 -3.69574,-4.25961 0.88389,0.24131 -2.41044,-2.81367 2.16921,1.04535 c -3.75109,-5.60919 -12.19323,-11.23553 -22.08023,-11.47048 z"
         style="fill:none;stroke:#000000;stroke-width:0.99999994;stroke-linecap:butt;stroke-linejoin:miter;stroke-miterlimit:4;stroke-dasharray:none;stroke-opacity:1" />
      <circle
         r="4.0726767"
         cy="528.0213"
         cx="855.10175"
         id="path4286"
         style="display:inline;opacity:1;fill:none;fill-opacity:1;stroke:#000000;stroke-width:0.53702778;stroke-linecap:round;stroke-linejoin:round;stroke-miterlimit:4;stroke-dasharray:none;stroke-dashoffset:0;stroke-opacity:1" />
    </g>
  </g>
</svg>
