<?xml version="1.0" encoding="UTF-8" standalone="no"?>
<!-- Generator: Adobe Illustrator 13.0.1, SVG Export Plug-In . SVG Version: 6.00 Build 14948)  -->

<svg
   xmlns:dc="http://purl.org/dc/elements/1.1/"
   xmlns:cc="http://creativecommons.org/ns#"
   xmlns:rdf="http://www.w3.org/1999/02/22-rdf-syntax-ns#"
   xmlns:svg="http://www.w3.org/2000/svg"
   xmlns="http://www.w3.org/2000/svg"
   xmlns:sodipodi="http://sodipodi.sourceforge.net/DTD/sodipodi-0.dtd"
   xmlns:inkscape="http://www.inkscape.org/namespaces/inkscape"
   version="1.1"
   id="Livello_1"
   x="0px"
   y="0px"
   width="4.7166686cm"
   height="4.5849128cm"
   viewBox="0 0 167.12605 162.45754"
   enable-background="new 0 0 618 600"
   xml:space="preserve"
   inkscape:version="0.91 r13725"
   sodipodi:docname="Five-petal_flower_icon.white.svg"><metadata
     id="metadata15"><rdf:RDF><cc:Work
         rdf:about=""><dc:format>image/svg+xml</dc:format><dc:type
           rdf:resource="http://purl.org/dc/dcmitype/StillImage" /><dc:title>Five-petal flower icon.</dc:title></cc:Work></rdf:RDF></metadata><defs
     id="defs13" /><sodipodi:namedview
     pagecolor="#ffffff"
     bordercolor="#666666"
     borderopacity="1"
     objecttolerance="10"
     gridtolerance="10"
     guidetolerance="10"
     inkscape:pageopacity="0"
     inkscape:pageshadow="2"
     inkscape:window-width="1920"
     inkscape:window-height="1019"
     id="namedview11"
     showgrid="false"
     inkscape:document-units="cm"
     units="cm"
     fit-margin-top="0"
     fit-margin-left="0"
     fit-margin-right="0"
     fit-margin-bottom="0"
     inkscape:zoom="0.8093152"
     inkscape:cx="-352.03496"
     inkscape:cy="-1.7568807"
     inkscape:window-x="0"
     inkscape:window-y="0"
     inkscape:window-maximized="1"
     inkscape:current-layer="Livello_1" /><title
     id="title3">Five-petal flower icon.</title><g
     id="g4135"><path
       inkscape:connector-curvature="0"
       style="fill:none;stroke:#000000;stroke-opacity:1"
       id="path7"
       d="M 84.419732,0.5097268 C 83.812768,0.4955947 83.203411,0.4968316 82.589654,0.513633 62.949421,1.0513626 47.464116,17.408224 48.001763,37.048789 47.389069,36.830802 46.77022,36.629232 46.146295,36.445274 27.300883,30.888596 7.5175906,41.662362 1.9607472,60.507774 -3.5960965,79.353186 7.1776696,99.134595 26.023248,104.69136 c -0.396121,0.51485 -0.779235,1.04036 -1.146485,1.57617 -11.109028,16.20544 -6.97692,38.34784 9.228516,49.45704 16.205603,11.10918 38.347836,6.97692 49.457031,-9.22852 0.367084,0.53548 0.750448,1.06133 1.146485,1.57617 11.979562,15.57311 34.313525,18.48746 49.886715,6.50781 15.57318,-11.97963 18.48737,-34.31556 6.50781,-49.88867 0.62401,-0.18396 1.24269,-0.38553 1.85547,-0.60351 18.51269,-6.581635 28.18514,-26.922855 21.60351,-45.435545 -6.58164,-18.512607 -26.92506,-28.185149 -45.4375,-21.603516 0.0177,-0.64922 0.0177,-1.298296 0,-1.947265 C 118.60395,16.075048 103.2356,0.9478197 84.419732,0.5097268 Z" /><circle
       r="4.0726767"
       cy="13.241287"
       cx="83.718689"
       id="path4286"
       style="display:inline;opacity:1;fill:none;fill-opacity:1;stroke:#000000;stroke-width:0.53702778;stroke-linecap:round;stroke-linejoin:round;stroke-miterlimit:4;stroke-dasharray:none;stroke-dashoffset:0;stroke-opacity:1" /></g></svg>