<?xml version="1.0" encoding="UTF-8" standalone="no"?>
<!-- Created with Inkscape (http://www.inkscape.org/) -->

<svg
   xmlns:dc="http://purl.org/dc/elements/1.1/"
   xmlns:cc="http://creativecommons.org/ns#"
   xmlns:rdf="http://www.w3.org/1999/02/22-rdf-syntax-ns#"
   xmlns:svg="http://www.w3.org/2000/svg"
   xmlns="http://www.w3.org/2000/svg"
   xmlns:sodipodi="http://sodipodi.sourceforge.net/DTD/sodipodi-0.dtd"
   xmlns:inkscape="http://www.inkscape.org/namespaces/inkscape"
   width="4.2444444cm"
   height="4.7800355cm"
   id="svg2"
   sodipodi:version="0.32"
   inkscape:version="0.91 r13725"
   version="1.0"
   sodipodi:docname="Flag_of_Canada_(leaf).svg"
   inkscape:output_extension="org.inkscape.output.svg.inkscape">
  <defs
     id="defs4">
    <inkscape:perspective
       sodipodi:type="inkscape:persp3d"
       inkscape:vp_x="0 : 526.18109 : 1"
       inkscape:vp_y="0 : 1000 : 0"
       inkscape:vp_z="744.09448 : 526.18109 : 1"
       inkscape:persp3d-origin="372.04724 : 350.78739 : 1"
       id="perspective10" />
    <inkscape:perspective
       id="perspective2449"
       inkscape:persp3d-origin="600 : 200 : 1"
       inkscape:vp_z="1200 : 300 : 1"
       inkscape:vp_y="0 : 1000 : 0"
       inkscape:vp_x="0 : 300 : 1"
       sodipodi:type="inkscape:persp3d" />
  </defs>
  <sodipodi:namedview
     id="base"
     pagecolor="#ffffff"
     bordercolor="#666666"
     borderopacity="1.0"
     inkscape:pageopacity="0.0"
     inkscape:pageshadow="2"
     inkscape:zoom="1.1639436"
     inkscape:cx="-388.51479"
     inkscape:cy="88.792495"
     inkscape:document-units="cm"
     inkscape:current-layer="layer1"
     showgrid="false"
     inkscape:window-width="1920"
     inkscape:window-height="1019"
     inkscape:window-x="0"
     inkscape:window-y="0"
     units="cm"
     fit-margin-top="0"
     fit-margin-left="0"
     fit-margin-right="0"
     fit-margin-bottom="0"
     inkscape:window-maximized="1" />
  <metadata
     id="metadata7">
    <rdf:RDF>
      <cc:Work
         rdf:about="">
        <dc:format>image/svg+xml</dc:format>
        <dc:type
           rdf:resource="http://purl.org/dc/dcmitype/StillImage" />
        <dc:title />
      </cc:Work>
    </rdf:RDF>
  </metadata>
  <g
     inkscape:label="Calque 1"
     inkscape:groupmode="layer"
     id="layer1"
     transform="translate(6303.3198,2015.7881)">
    <g
       id="g4137">
      <path
         sodipodi:nodetypes="cccccccccccccccccccccccccccccccccccccc"
         inkscape:connector-curvature="0"
         id="maple_leaf"
         d="m -6228.1261,-2014.6926 -12.9758,25.3032 c -1.4722,2.75 -4.1102,2.4948 -6.7482,0.9587 l -9.3946,-5.0857 7.0021,38.8651 c 1.4723,7.1005 -3.2515,7.1005 -5.5834,4.0303 l -16.3943,-19.189 -2.6618,9.7447 c -0.3068,1.2797 -1.6562,2.6237 -3.6811,2.3037 l -20.7311,-4.5572 5.4451,20.6977 c 1.1659,4.6055 2.0748,6.5123 -1.1768,7.727 l -7.389,3.631 35.6871,30.3074 c 1.4125,1.1461 2.1265,3.2083 1.6233,5.0754 l -3.1234,10.7165 c 12.2877,-1.4807 23.3041,-2.8063 35.5916,-4.2854 1.0919,-0.014 2.9023,0.9562 2.8946,2.271 l -1.6278,39.2614 5.9742,0 -0.9405,-39.177 c -0.01,-1.3153 1.6343,-2.3695 2.7263,-2.3554 12.2874,1.4791 23.3038,2.8047 35.5916,4.2854 l -3.1235,-10.7165 c -0.5032,-1.8671 0.2108,-3.9293 1.6233,-5.0754 l 35.6872,-30.3074 -7.3891,-3.631 c -3.2516,-1.2147 -2.3427,-3.1215 -1.1768,-7.727 l 5.4451,-20.6977 -20.7311,4.5572 c -2.0249,0.32 -3.3743,-1.024 -3.6811,-2.3037 l -2.6618,-9.7447 -16.3942,19.189 c -2.332,3.0702 -7.0558,3.0702 -5.5835,-4.0303 l 7.0021,-38.8651 -9.3946,5.0857 c -2.6381,1.5361 -5.2759,1.7913 -6.7481,-0.9587 z"
         style="fill:none;stroke:#000000;stroke-opacity:1" />
      <circle
         r="4.0726767"
         cy="-1897.095"
         cx="-6204.0181"
         id="path4286"
         style="display:inline;opacity:1;fill:none;fill-opacity:1;stroke:#000000;stroke-width:0.53702778;stroke-linecap:round;stroke-linejoin:round;stroke-miterlimit:4;stroke-dasharray:none;stroke-dashoffset:0;stroke-opacity:1" />
    </g>
  </g>
</svg>
