<?xml version="1.0" encoding="UTF-8" standalone="no"?>
<!-- Created with Inkscape (http://www.inkscape.org/) -->

<svg
   xmlns:dc="http://purl.org/dc/elements/1.1/"
   xmlns:cc="http://creativecommons.org/ns#"
   xmlns:rdf="http://www.w3.org/1999/02/22-rdf-syntax-ns#"
   xmlns:svg="http://www.w3.org/2000/svg"
   xmlns="http://www.w3.org/2000/svg"
   xmlns:sodipodi="http://sodipodi.sourceforge.net/DTD/sodipodi-0.dtd"
   xmlns:inkscape="http://www.inkscape.org/namespaces/inkscape"
   width="4.9570289cm"
   height="2.75283cm"
   id="svg37867"
   version="1.1"
   inkscape:version="0.91 r13725"
   sodipodi:docname="Leaf_paired-pinnate_with_tendrils.svg">
  <defs
     id="defs37869">
    <inkscape:perspective
       sodipodi:type="inkscape:persp3d"
       inkscape:vp_x="0 : 526.18109 : 1"
       inkscape:vp_y="0 : 1000 : 0"
       inkscape:vp_z="744.09448 : 526.18109 : 1"
       inkscape:persp3d-origin="372.04724 : 350.78739 : 1"
       id="perspective37875" />
    <inkscape:perspective
       id="perspective37850"
       inkscape:persp3d-origin="0.5 : 0.33333333 : 1"
       inkscape:vp_z="1 : 0.5 : 1"
       inkscape:vp_y="0 : 1000 : 0"
       inkscape:vp_x="0 : 0.5 : 1"
       sodipodi:type="inkscape:persp3d" />
  </defs>
  <sodipodi:namedview
     id="base"
     pagecolor="#ffffff"
     bordercolor="#666666"
     borderopacity="1.0"
     inkscape:pageopacity="0.0"
     inkscape:pageshadow="2"
     inkscape:zoom="1.9444407"
     inkscape:cx="-151.86659"
     inkscape:cy="32.124108"
     inkscape:document-units="cm"
     inkscape:current-layer="layer1"
     showgrid="false"
     inkscape:window-width="1920"
     inkscape:window-height="1019"
     inkscape:window-x="0"
     inkscape:window-y="0"
     inkscape:window-maximized="1"
     units="cm"
     fit-margin-top="0"
     fit-margin-left="0"
     fit-margin-right="0"
     fit-margin-bottom="0" />
  <metadata
     id="metadata37872">
    <rdf:RDF>
      <cc:Work
         rdf:about="">
        <dc:format>image/svg+xml</dc:format>
        <dc:type
           rdf:resource="http://purl.org/dc/dcmitype/StillImage" />
        <dc:title></dc:title>
      </cc:Work>
    </rdf:RDF>
  </metadata>
  <g
     inkscape:label="Ebene 1"
     inkscape:groupmode="layer"
     id="layer1"
     transform="translate(-526.93582,-460.86325)">
    <path
       inkscape:connector-curvature="0"
       style="fill:none;fill-opacity:1;fill-rule:evenodd;stroke:#000000;stroke-width:0.59999955;stroke-linecap:butt;stroke-linejoin:miter;stroke-miterlimit:4;stroke-dasharray:none;stroke-opacity:1"
       d="m 544.31757,502.69552 c 3.07745,2.6312 6.98455,3.20381 8.62626,2.1214 1.31562,-0.86743 1.27274,-3.24469 0.17424,-4.61887 -8.99693,-9.05167 -7.71042,-18.27416 -3.39187,-29.44629 3.02327,-5.03903 6.53479,-7.37541 12.37991,-9.56469 6.33237,2.79365 10.17504,10.42255 9.93889,19.68642 -0.27639,10.84176 -6.78473,19.47857 -13.91197,21.95677 -0.85876,0.2986 -1.73398,3.07137 -2.11812,3.80546 -1.18574,2.26605 1.04225,2.15019 2.19721,2.26456 l 29.76786,3.62571 c 2.44099,0.43079 -1.22729,-2.6257 -1.76856,-3.09376 -6.56271,-5.67503 -8.37987,-9.31512 -7.42996,-20.46753 1.11555,-13.09731 5.82444,-16.5145 14.68006,-18.75582 8.32985,2.88912 12.59706,10.49458 11.03565,22.21068 -0.94857,7.12888 -2.81657,12.63316 -6.40447,16.0424 -2.02203,1.92135 -5.35195,2.65652 -5.37177,4.27283 7.56264,0.54747 16.0747,0.3998 22.86783,-0.003 2.44347,-0.14479 3.29879,-0.3532 4.94953,-1.67602 1.53022,-1.2262 1.97541,-3.32225 2.69277,-5.25771 -5.39645,-9.77954 -5.3218,-20.08103 1.09008,-28.28968 5.3053,-6.792 11.78015,-7.91516 19.83695,-6.53269 7.13458,8.04578 4.35934,16.58258 1.441,22.81172 -2.21937,4.73722 -6.17033,10.90514 -11.03208,12.83982 -3.30916,1.31685 -6.63817,0.69825 -7.96073,0.76329 -1.02419,0.0504 -2.81286,3.44301 -2.96273,4.79731 1.79965,1.098 11.35891,0.57935 14.15342,0.50297 5.6595,-0.1547 14.20429,-1.15323 17.58111,-1.60227 4.54855,-0.60484 5.24913,-1.04627 3.65246,-3.92705 -6.84377,-10.10787 -4.42187,-21.85479 3.20617,-29.23672 2.03396,-1.96831 7.45212,-2.80522 10.00096,-3.22824 6.40711,4.61881 8.58075,9.86585 7.55592,17.50382 -0.44381,6.43401 -3.31429,11.97687 -8.04189,14.95169 -2.97832,1.87408 -7.56789,0.50674 -8.1391,1.98484 -0.50759,1.24583 -1.36785,1.95197 -0.15501,1.87614 11.95659,-0.74762 30.80808,-3.48871 39.00179,-6.20613 -10.51006,4.55049 -32.30655,8.39566 -42.42336,10.4289 0.47528,1.90326 1.33882,2.82446 2.53123,2.95695 1.80462,0.20053 4.69139,-0.22709 6.76565,0.003 6.14921,0.8489 9.64442,5.61888 12.4937,10.16375 4.24946,6.77831 5.06728,12.91101 1.42209,20.7187 -11.43129,4.20564 -18.4841,-3.85957 -22.15987,-7.81707 -3.35228,-3.60915 -4.00323,-7.26807 -4.47175,-8.46605 -1.43991,-3.68174 0.45797,-6.44175 1.08487,-10.29617 0.0696,-0.62828 1.82202,-2.18911 0.54075,-3.87162 -1.94378,-2.55248 -2.88039,-2.0458 -6.73876,-1.92763 -8.481,0.25968 -15.22652,0.77619 -22.76423,1.27046 -1.70248,-0.18916 1.9667,4.18168 3.67848,4.24402 1.3794,0.0502 4.0733,-0.64373 5.71649,-0.48912 10.70525,1.00738 15.02627,9.75574 18.27952,14.41042 2.70603,5.2752 0.48206,11.83023 -1.01867,15.96023 -10.04191,2.48271 -14.93448,0.10191 -20.9711,-5.13433 -2.3064,-2.16842 -3.94306,-4.15599 -5.99895,-6.72781 -3.75253,-5.02392 -3.05353,-11.92751 -0.63643,-15.49823 0.3648,-0.9602 -2.30865,-4.89842 -4.79737,-6.2796 -1.2668,-0.70305 -5.01005,-0.7045 -7.00986,-0.66654 -4.64512,0.0884 -7.59643,0.26325 -12.36258,0.47974 -2.44628,0.1111 -5.45188,-0.0587 -7.81374,0.36517 -1.54826,0.42902 0.69009,3.72422 0.82092,3.88789 0.88214,1.10352 3.39528,-0.37405 5.08215,0.16955 5.7159,1.84202 6.28851,3.74434 8.73971,6.28392 7.14834,7.65857 9.5031,13.45628 3.41233,28.56513 -7.75322,1.6345 -15.41117,-0.7433 -18.56277,-4.28531 -4.41467,-4.96157 -8.30371,-12.37593 -8.08536,-19.15594 0.11735,-3.64308 3.80922,-6.02584 4.56702,-8.45097 0.78198,-2.50249 1.33929,-2.64028 -0.12394,-4.76445 -1.53248,-2.22466 -1.23055,-2.22661 -9.61257,-3.49966 -6.22922,-0.94608 -11.69406,-1.42442 -18.20999,-2.08131 -1.94255,-0.19574 -4.02959,-0.80603 -5.95694,-0.70057 -0.16252,0.51195 -0.16432,2.61572 -0.32685,3.12767 -0.43616,1.37384 2.63871,1.21756 3.6259,1.67487 9.36484,4.33828 11.62265,14.39532 10.81231,22.89573 -0.95307,7.04065 -4.37116,11.7413 -9.42801,15.79352 -7.15971,-0.69316 -13.32422,-4.98851 -15.05551,-11.36712 -3.30902,-12.19145 -0.33797,-23.12002 5.98549,-28.92454 1.35765,-2.05311 -0.68998,-3.99182 -2.28641,-5.86559 -1.12494,-1.32042 -3.25328,-2.69663 -5.05558,-3.10573 -4.12089,-0.93539 -7.31887,-3.91923 -10.73866,-6.28119 -2.26355,-1.56335 -5.35106,-2.79213 -7.18229,-3.97803 -1.62684,-1.05357 -0.80994,-4.16116 -0.59458,-6.10799 0.25064,-2.26499 1.58989,-1.45309 2.96277,-0.94277 l 13.7228,11.17384 z"
       id="path3562"
       sodipodi:nodetypes="cscccsssccsscsscsscscssscsscsccscsccscscsscsscsscccccssscssccsssssscssccscssssscc" />
  </g>
</svg>
