<?xml version="1.0" encoding="UTF-8" standalone="no"?>
<!-- Created with Inkscape (http://www.inkscape.org/) -->

<svg
   xmlns:dc="http://purl.org/dc/elements/1.1/"
   xmlns:cc="http://creativecommons.org/ns#"
   xmlns:rdf="http://www.w3.org/1999/02/22-rdf-syntax-ns#"
   xmlns:svg="http://www.w3.org/2000/svg"
   xmlns="http://www.w3.org/2000/svg"
   xmlns:sodipodi="http://sodipodi.sourceforge.net/DTD/sodipodi-0.dtd"
   xmlns:inkscape="http://www.inkscape.org/namespaces/inkscape"
   version="1.1"
   width="4.9550762cm"
   height="4.9607cm"
   id="svg2"
   inkscape:version="0.91 r13725"
   sodipodi:docname="Vine_leaf_ornament.svg">
  <metadata
     id="metadata8">
    <rdf:RDF>
      <cc:Work
         rdf:about="">
        <dc:format>image/svg+xml</dc:format>
        <dc:type
           rdf:resource="http://purl.org/dc/dcmitype/StillImage" />
        <dc:title></dc:title>
      </cc:Work>
    </rdf:RDF>
  </metadata>
  <sodipodi:namedview
     pagecolor="#ffffff"
     bordercolor="#666666"
     borderopacity="1"
     objecttolerance="10"
     gridtolerance="10"
     guidetolerance="10"
     inkscape:pageopacity="0"
     inkscape:pageshadow="2"
     inkscape:window-width="1920"
     inkscape:window-height="1019"
     id="namedview6"
     showgrid="false"
     inkscape:document-units="cm"
     units="cm"
     fit-margin-top="0"
     fit-margin-left="0"
     fit-margin-right="0"
     fit-margin-bottom="0"
     inkscape:zoom="3.8211719"
     inkscape:cx="49.522805"
     inkscape:cy="81.824765"
     inkscape:window-x="0"
     inkscape:window-y="0"
     inkscape:window-maximized="1"
     inkscape:current-layer="svg2" />
  <defs
     id="defs4" />
  <path
     inkscape:connector-curvature="0"
     style="fill:none;stroke:#000000;stroke-opacity:1"
     id="path2846"
     d="m 32.744004,0.51271419 c -1.79118,0.0327 -3.58001,0.12813 -5.34375,0.3125 C 20.345314,1.5626642 13.465044,3.6198942 8.2440041,8.2939642 3.0229741,12.968034 0.04533402,20.297264 0.55650406,29.293964 c 0.51142004,9.00088 4.29731004,16.14354 10.18749994,20.34375 5.8902,4.20021 13.30575,5.53305 21.03125,5.1875 15.45102,-0.6911 32.83045,-8.00323 45.8125,-18.3125 1.40854,-1.11854 2.83053,-2.03911 4.25,-3.0625 4.294764,6.67781 7.612077,14.82615 9.343747,24.0625 -7.498297,-5.07246 -21.011597,-10.5464 -35.656247,1.5 -22.14285,18.214289 -24.9866,12.875 -45.34375,-2.125 -2.8571399,36.071429 15.0134,54.642856 44.65625,52.499996 0,0 -13.95089,4.26339 -3.59375,26.40625 6.01798,12.86606 8.40841,20.07496 6.5625,25.18746 -12.84024,2.2919 -15.77059,7.7809 -5.56696,12.6652 45.098027,9.9746 65.669306,-27.4734 68.660706,-66.04016 45.35715,0 52.85715,-31.803566 52.5,-50.374996 -8.21428,11.07143 -22.16071,11.07143 -32.875,2.5 -9.93188,-7.94551 -21.68726,-16.17733 -39,-1.125 -1.735646,-11.67552 -5.688779,-22.12663 -11.218749,-30.71875 19.360539,-11.37091 38.721759,-14.46029 52.531249,-10.8125 5.47813,1.44705 9.46009,4.0921 12.375,6.96875 -8.9749,8.3574 -11.84315,26.37697 2.28125,27.03125 18.92176,0.8765 21.03089,-15.45108 13.5625,-27.125 -5.44614,-8.51293 -16.41683,-13.22885 -25.65625,-16.5624998 -17.51461,-4.6265 -39.73601,-0.56573 -61.281242,12.4999998 C 78.947774,14.164924 72.986664,9.6633042 66.400254,6.9189642 c -7.08059,-2.95025 -17.53946,-5.73417 -28.28125,-6.31250001 -1.79029,-0.0964 -3.58382,-0.12649 -5.375,-0.0937 z m 0.125,10.03124981 c 1.5215,-0.018 3.08787,0.0275 4.65625,0.125 9.41029,0.58517 19.25471,3.06186 25.03125,5.46875 4.63278,1.93032 9.04505,5.22645 13.0625,9.4375 -1.42147,1.03541 -2.84236,1.97592 -4.25,3.09375 -11.30366,8.97644 -27.53583,15.59735 -40.03125,16.15625 -6.2477,0.27945 -11.37457,-0.9145 -14.78125,-3.34375 -3.40667,-2.42925 -5.6498,-6.03659 -6.03125,-12.75 -0.38168,-6.71759 1.42417,-10.29907 4.40625,-12.96875 2.98209,-2.66968 7.74244,-4.36691 13.5,-4.96875 1.43939,-0.15046 2.91601,-0.23198 4.4375,-0.25 z"
     sodipodi:nodetypes="cssssssccsccsccccsccscssccssccccscssssssc" />
</svg>
