<?xml version="1.0" encoding="UTF-8" standalone="no"?>
<!-- Created with Inkscape (http://www.inkscape.org/) -->

<svg
   xmlns:svg="http://www.w3.org/2000/svg"
   xmlns="http://www.w3.org/2000/svg"
   version="1.1"
   width="200"
   height="200"
   id="svg2">
  <defs
     id="defs4" />
  <g
     transform="translate(0,-852.36212)"
     id="layer1">
    <path
       d="m 43.583163,863.37299 c -1.79118,0.0327 -3.58001,0.12813 -5.34375,0.3125 -7.05494,0.73745 -13.93521,2.79468 -19.15625,7.46875 -5.22103,4.67407 -8.19867,12.0033 -7.6875,21 0.51142,9.00088 4.29731,16.14354 10.1875,20.34375 5.8902,4.20021 13.30575,5.53305 21.03125,5.1875 15.45102,-0.6911 32.83045,-8.00323 45.8125,-18.3125 1.40854,-1.11854 2.83053,-2.03911 4.25,-3.0625 4.294764,6.67781 7.612077,14.82615 9.343747,24.0625 -7.498297,-5.07246 -21.011597,-10.5464 -35.656247,1.5 -22.14285,18.21429 -24.9866,12.875 -45.34375,-2.125 -2.85714,36.07143 15.0134,54.64286 44.65625,52.5 0,0 -13.95089,4.26339 -3.59375,26.40625 6.01798,12.86606 8.40841,20.07496 6.5625,25.18746 -12.84024,2.2919 -15.77059,7.7809 -5.56696,12.6652 45.098027,9.9746 65.669307,-27.4734 68.660707,-66.04016 45.35715,0 52.85715,-31.80357 52.5,-50.375 -8.21428,11.07143 -22.16071,11.07143 -32.875,2.5 -9.93188,-7.94551 -21.68726,-16.17733 -39,-1.125 -1.73565,-11.67552 -5.68878,-22.12663 -11.21875,-30.71875 19.36054,-11.37091 38.72176,-14.46029 52.53125,-10.8125 5.47813,1.44705 9.46009,4.0921 12.375,6.96875 -8.9749,8.3574 -11.84315,26.37697 2.28125,27.03125 18.92176,0.8765 21.03089,-15.45108 13.5625,-27.125 -5.44614,-8.51293 -16.41683,-13.22885 -25.65625,-16.5625 -17.51461,-4.6265 -39.73601,-0.56573 -61.281243,12.5 -5.171234,-5.72279 -11.132344,-10.22441 -17.718754,-12.96875 -7.08059,-2.95025 -17.53946,-5.73417 -28.28125,-6.3125 -1.79029,-0.0964 -3.58382,-0.12649 -5.375,-0.0937 l 0,-5e-5 z m 0.125,10.03125 c 1.5215,-0.018 3.08787,0.0275 4.65625,0.125 9.41029,0.58517 19.25471,3.06186 25.03125,5.46875 4.63278,1.93032 9.04505,5.22645 13.0625,9.4375 -1.42147,1.03541 -2.84236,1.97592 -4.25,3.09375 -11.30366,8.97644 -27.53583,15.59735 -40.03125,16.15625 -6.2477,0.27945 -11.37457,-0.9145 -14.78125,-3.34375 -3.40667,-2.42925 -5.6498,-6.03659 -6.03125,-12.75 -0.38168,-6.71759 1.42417,-10.29907 4.40625,-12.96875 2.98209,-2.66968 7.74244,-4.36691 13.5,-4.96875 1.43939,-0.15046 2.91601,-0.23198 4.4375,-0.25 z m 62.281247,64.8125 c 1.00201,0.006 2.03022,0.10121 3.0625,0.28125 8.25823,1.44032 13.99865,8.10535 12.8125,14.90625 -1.18614,6.8009 -8.83552,11.15907 -17.09375,9.71875 -8.258223,-1.44032 -13.998637,-8.10535 -12.812497,-14.90625 1.03788,-5.95078 7.017232,-10.04014 14.031247,-10 z"
       id="path2846"
       style="fill:#000000;stroke:none" />
  </g>
</svg>
