<?xml version="1.0" encoding="UTF-8" standalone="no"?>
<!-- Created with Inkscape (http://www.inkscape.org/) -->

<svg
   xmlns:dc="http://purl.org/dc/elements/1.1/"
   xmlns:cc="http://creativecommons.org/ns#"
   xmlns:rdf="http://www.w3.org/1999/02/22-rdf-syntax-ns#"
   xmlns:svg="http://www.w3.org/2000/svg"
   xmlns="http://www.w3.org/2000/svg"
   xmlns:xlink="http://www.w3.org/1999/xlink"
   xmlns:sodipodi="http://sodipodi.sourceforge.net/DTD/sodipodi-0.dtd"
   xmlns:inkscape="http://www.inkscape.org/namespaces/inkscape"
   width="4.3261309cm"
   height="3.439532cm"
   id="svg1306"
   sodipodi:version="0.32"
   inkscape:version="0.91 r13725"
   sodipodi:docname="Weather-sun-clouds-shower.svg"
   inkscape:output_extension="org.inkscape.output.svg.inkscape"
   sodipodi:modified="true"
   version="1.1">
  <defs
     id="defs1308">
    <inkscape:perspective
       sodipodi:type="inkscape:persp3d"
       inkscape:vp_x="0 : 24 : 1"
       inkscape:vp_y="0 : 1000 : 0"
       inkscape:vp_z="48 : 24 : 1"
       inkscape:persp3d-origin="24 : 16 : 1"
       id="perspective2673" />
    <linearGradient
       inkscape:collect="always"
       xlink:href="#linearGradient6538"
       id="linearGradient6839"
       gradientUnits="userSpaceOnUse"
       x1="284.80219"
       y1="-441.23294"
       x2="288.89954"
       y2="-436.83109" />
    <linearGradient
       inkscape:collect="always"
       id="linearGradient6549">
      <stop
         style="stop-color:#ffffff;stop-opacity:1;"
         offset="0"
         id="stop6551" />
      <stop
         style="stop-color:#ffffff;stop-opacity:0;"
         offset="1"
         id="stop6553" />
    </linearGradient>
    <linearGradient
       inkscape:collect="always"
       xlink:href="#linearGradient6549"
       id="linearGradient6837"
       gradientUnits="userSpaceOnUse"
       x1="286.66589"
       y1="-439.48358"
       x2="289.76562"
       y2="-436.70703" />
    <linearGradient
       inkscape:collect="always"
       id="linearGradient6527">
      <stop
         style="stop-color:#ffffff;stop-opacity:1;"
         offset="0"
         id="stop6530" />
      <stop
         style="stop-color:#ffffff;stop-opacity:0;"
         offset="1"
         id="stop6532" />
    </linearGradient>
    <linearGradient
       inkscape:collect="always"
       xlink:href="#linearGradient6527"
       id="linearGradient6835"
       gradientUnits="userSpaceOnUse"
       x1="275.94193"
       y1="-437.10501"
       x2="279.97546"
       y2="-431.91833" />
    <linearGradient
       inkscape:collect="always"
       id="linearGradient6538">
      <stop
         style="stop-color:#ffffff;stop-opacity:1;"
         offset="0"
         id="stop6540" />
      <stop
         style="stop-color:#ffffff;stop-opacity:0;"
         offset="1"
         id="stop6542" />
    </linearGradient>
    <linearGradient
       inkscape:collect="always"
       xlink:href="#linearGradient6538"
       id="linearGradient6833"
       gradientUnits="userSpaceOnUse"
       x1="285.94086"
       y1="-439.939"
       x2="289.39124"
       y2="-436.4429" />
    <linearGradient
       inkscape:collect="always"
       id="linearGradient6513">
      <stop
         style="stop-color:#ffffff;stop-opacity:1;"
         offset="0"
         id="stop6515" />
      <stop
         style="stop-color:#ffffff;stop-opacity:0;"
         offset="1"
         id="stop6517" />
    </linearGradient>
    <linearGradient
       inkscape:collect="always"
       xlink:href="#linearGradient6513"
       id="linearGradient6831"
       gradientUnits="userSpaceOnUse"
       x1="286.51172"
       y1="-441.29074"
       x2="289.85379"
       y2="-436.14453" />
    <linearGradient
       inkscape:collect="always"
       id="linearGradient6497">
      <stop
         style="stop-color:#ffffff;stop-opacity:1;"
         offset="0"
         id="stop6499" />
      <stop
         style="stop-color:#ffffff;stop-opacity:0;"
         offset="1"
         id="stop6501" />
    </linearGradient>
    <linearGradient
       inkscape:collect="always"
       xlink:href="#linearGradient6497"
       id="linearGradient6829"
       gradientUnits="userSpaceOnUse"
       x1="287.5173"
       y1="-439.75281"
       x2="289.67633"
       y2="-436.32199" />
    <linearGradient
       inkscape:collect="always"
       id="linearGradient6470">
      <stop
         style="stop-color:#ffffff;stop-opacity:1;"
         offset="0"
         id="stop6472" />
      <stop
         style="stop-color:#ffffff;stop-opacity:0;"
         offset="1"
         id="stop6474" />
    </linearGradient>
    <linearGradient
       inkscape:collect="always"
       xlink:href="#linearGradient6470"
       id="linearGradient6827"
       gradientUnits="userSpaceOnUse"
       x1="271.0217"
       y1="-441.05182"
       x2="285.02859"
       y2="-431.96991" />
    <linearGradient
       id="linearGradient4083">
      <stop
         id="stop4085"
         offset="0"
         style="stop-color:#ffffff;stop-opacity:0;" />
      <stop
         style="stop-color:#ffffff;stop-opacity:0;"
         offset="0.75"
         id="stop4089" />
      <stop
         id="stop4087"
         offset="1"
         style="stop-color:#ffffff;stop-opacity:1;" />
    </linearGradient>
    <linearGradient
       id="linearGradient4032">
      <stop
         id="stop4034"
         offset="0"
         style="stop-color:#fff7c2;stop-opacity:0.63829786" />
      <stop
         style="stop-color:#fcaf3e;stop-opacity:0.18348624;"
         offset="0.59394139"
         id="stop4036" />
      <stop
         id="stop4038"
         offset="0.83850551"
         style="stop-color:#fcaf3e;stop-opacity:0.50458717;" />
      <stop
         id="stop4040"
         offset="1"
         style="stop-color:#fcaf3e;stop-opacity:1;" />
    </linearGradient>
    <linearGradient
       id="linearGradient4026">
      <stop
         id="stop4028"
         offset="0"
         style="stop-color:#fff9c6;stop-opacity:1" />
      <stop
         style="stop-color:#fff28c;stop-opacity:1;"
         offset="0.54166669"
         id="stop4042" />
      <stop
         id="stop4030"
         offset="1"
         style="stop-color:#ffea85;stop-opacity:1;" />
    </linearGradient>
  </defs>
  <sodipodi:namedview
     id="base"
     pagecolor="#ffffff"
     bordercolor="#666666"
     borderopacity="1.0"
     inkscape:pageopacity="0.0"
     inkscape:pageshadow="2"
     inkscape:zoom="2.6304487"
     inkscape:cx="6.4433805"
     inkscape:cy="116.77302"
     inkscape:current-layer="layer1"
     showgrid="true"
     inkscape:grid-bbox="true"
     inkscape:document-units="cm"
     inkscape:window-width="1920"
     inkscape:window-height="1019"
     inkscape:window-x="0"
     inkscape:window-y="0"
     inkscape:showpageshadow="false"
     units="cm"
     fit-margin-top="0"
     fit-margin-left="0"
     fit-margin-right="0"
     fit-margin-bottom="0"
     inkscape:window-maximized="1" />
  <metadata
     id="metadata1311">
    <rdf:RDF>
      <cc:Work
         rdf:about="">
        <dc:format>image/svg+xml</dc:format>
        <dc:type
           rdf:resource="http://purl.org/dc/dcmitype/StillImage" />
        <dc:title>weather-clear</dc:title>
        <dc:date>January 2006</dc:date>
        <dc:creator>
          <cc:Agent>
            <dc:title>Ryan Collier (pseudo)</dc:title>
          </cc:Agent>
        </dc:creator>
        <dc:publisher>
          <cc:Agent>
            <dc:title>http://www.tango-project.org</dc:title>
          </cc:Agent>
        </dc:publisher>
        <dc:source>http://www.pseudocode.org</dc:source>
        <dc:subject>
          <rdf:Bag>
            <rdf:li>weather</rdf:li>
            <rdf:li>applet</rdf:li>
            <rdf:li>notification</rdf:li>
          </rdf:Bag>
        </dc:subject>
        <cc:license
           rdf:resource="http://creativecommons.org/licenses/by-sa/2.0/" />
        <dc:contributor>
          <cc:Agent>
            <dc:title>Garrett LeSage</dc:title>
          </cc:Agent>
        </dc:contributor>
      </cc:Work>
      <cc:License
         rdf:about="http://creativecommons.org/licenses/by-sa/2.0/">
        <cc:permits
           rdf:resource="http://web.resource.org/cc/Reproduction" />
        <cc:permits
           rdf:resource="http://web.resource.org/cc/Distribution" />
        <cc:requires
           rdf:resource="http://web.resource.org/cc/Notice" />
        <cc:requires
           rdf:resource="http://web.resource.org/cc/Attribution" />
        <cc:permits
           rdf:resource="http://web.resource.org/cc/DerivativeWorks" />
        <cc:requires
           rdf:resource="http://web.resource.org/cc/ShareAlike" />
      </cc:License>
    </rdf:RDF>
  </metadata>
  <g
     id="layer1"
     inkscape:label="Layer 1"
     inkscape:groupmode="layer"
     transform="translate(0.5729201,-2.4632489)">
    <path
       style="opacity:1;fill:none;fill-opacity:1;stroke:#000000;stroke-width:1;stroke-linecap:butt;stroke-linejoin:miter;stroke-miterlimit:2;stroke-dasharray:none;stroke-dashoffset:0;stroke-opacity:1"
       d="M 88.419922 0 C 80.101549 0 73.091847 4.7239064 69.197266 11.443359 C 66.363807 10.017585 63.302148 9.0039063 59.916016 9.0039062 C 48.322465 9.0039062 38.912109 18.416351 38.912109 30.013672 C 38.912109 33.330252 39.704154 36.455942 41.074219 39.246094 C 35.575169 40.319953 31.276431 44.497936 29.707031 49.847656 C 27.627063 48.755665 25.373837 47.972656 22.863281 47.972656 C 14.582174 47.972656 7.8612981 54.694685 7.8613281 62.978516 C 7.8613281 64.716103 8.3488153 66.30481 8.8925781 67.857422 C 4.7716169 70.170704 1.8613281 74.426006 1.8613281 79.486328 C 1.8613281 86.147038 6.6931634 91.674016 13.037109 92.779297 C 12.028177 94.213645 10.981982 95.688002 10.1875 97.560547 C 9.62987 97.886016 9.1691895 98.271543 8.8769531 98.787109 C 7.195205 101.75413 7.9934236 105.48345 10.607422 107.5 C 11.962549 109.28968 14.056131 110.50901 16.482422 110.66992 C 26.234767 109.84988 26.381447 100.60537 23.566406 92.994141 L 54.191406 92.994141 C 52.580976 95.221151 50.542478 97.095236 49.132812 100.11133 C 48.724389 100.39482 48.389572 100.72704 48.15625 101.13867 C 46.82649 103.4847 47.05068 106.30584 48.492188 108.38281 C 49.572337 110.80603 51.831423 112.64487 54.664062 113.06055 C 65.748851 113.0117 65.413573 101.21135 62.107422 92.994141 L 72.369141 92.994141 C 74.698193 92.994141 76.891624 92.401332 78.804688 91.361328 C 79.495264 91.470394 80.196898 91.541019 80.917969 91.541016 L 93.695312 91.541016 C 92.406183 93.609744 90.793704 95.471517 89.681641 98.107422 C 89.114571 98.435175 88.64734 98.825842 88.351562 99.347656 C 86.649215 102.35102 87.484708 106.13845 90.175781 108.13672 C 91.54021 109.88961 93.619707 111.07648 96.021484 111.22461 C 106.6352 110.28269 105.8193 99.408696 102.20117 91.541016 L 134.91016 91.541016 C 133.63896 94.217615 131.62248 96.292586 130.32812 99.443359 C 129.72415 99.779716 129.22937 100.18259 128.91992 100.72852 C 127.15579 103.84089 128.12126 107.79013 131.04883 109.72266 C 132.4471 111.38441 134.50851 112.48345 136.85938 112.58203 C 148.28961 111.34046 146.192 98.79425 141.71289 90.992188 C 147.32258 89.352131 151.42773 84.174341 151.42773 78.035156 C 151.42773 73.378721 148.95985 69.407437 145.35547 67 C 146.21844 65.610245 146.79543 63.966273 146.79688 62.027344 L 146.79688 62.025391 L 145.39258 62.039062 C 145.40193 61.867927 145.42773 61.701382 145.42773 61.527344 C 145.42773 58.964107 144.78058 56.552835 143.64648 54.441406 C 143.8289 53.328294 143.92578 52.187926 143.92578 51.023438 C 143.92578 43.911105 140.14956 37.94235 134.73828 34.140625 C 134.75928 33.749306 134.92578 33.412347 134.92578 33.015625 C 134.92578 21.418304 125.51545 12.005859 113.92188 12.005859 C 112.05352 12.005859 110.39653 12.672219 108.67188 13.130859 C 105.0878 5.4508163 97.447109 0 88.419922 0 z "
       id="path13217"
       transform="translate(-0.5729201,2.4632489)" />
  </g>
</svg>
